<?xml version="1.0" standalone="no"?>
<!DOCTYPE svg PUBLIC "-//W3C//DTD SVG 20010904//EN"
 "http://www.w3.org/TR/2001/REC-SVG-20010904/DTD/svg10.dtd">
<svg version="1.0" xmlns="http://www.w3.org/2000/svg"
 width="300.000000pt" height="300.000000pt" viewBox="0 0 300.000000 300.000000"
 preserveAspectRatio="xMidYMid meet">
<metadata>
Created by potrace 1.11, written by Peter Selinger 2001-2013
</metadata>
<g transform="translate(0.000000,300.000000) scale(0.100000,-0.100000)"
fill="#000000" stroke="none">
<path d="M2178 2939 c0 -2 -4 -96 -8 -209 l-6 -205 -2 183 c-1 101 -7 192 -12
202 -9 16 -15 17 -40 8 -39 -13 -39 -12 -21 -238 6 -74 13 -188 16 -252 l4
-118 -34 0 c-33 0 -35 2 -35 34 0 38 -27 58 -45 33 -14 -20 -57 -14 -66 9 -4
10 -8 34 -8 52 -1 32 -2 32 -48 32 -27 0 -112 -3 -190 -7 l-143 -6 0 -54 c0
-62 -6 -66 -70 -55 -41 7 -45 10 -42 34 3 30 -16 48 -29 27 -7 -11 -12 -12
-29 -1 -28 17 -28 17 -36 -33 -8 -58 -36 -60 -61 -5 l-12 25 0 -27 c-1 -31
-16 -44 -35 -29 -7 6 -16 8 -20 4 -3 -4 -13 2 -22 13 -11 14 -17 16 -21 6 -4
-10 -8 -10 -20 0 -12 10 -18 8 -33 -11 -17 -23 -18 -23 -28 -5 -9 16 -12 16
-15 4 -3 -8 -8 -23 -11 -32 -10 -31 -37 -20 -53 22 -18 45 -28 50 -37 18 -6
-22 -7 -23 -21 -4 -14 18 -16 18 -34 2 -17 -16 -20 -15 -51 20 -25 29 -34 34
-41 23 -37 -61 -60 -73 -78 -41 -10 15 -11 15 -17 -5 -5 -18 -10 -21 -24 -13
-9 5 -20 7 -23 4 -3 -3 -3 8 -1 25 4 27 3 30 -13 24 -17 -7 -17 -6 0 21 18 27
18 29 1 47 -10 11 -19 27 -20 35 -4 25 -9 26 -79 15 -76 -11 -70 -9 -79 -37
-5 -16 2 -29 25 -52 31 -30 31 -31 21 -89 -6 -32 -14 -69 -18 -82 l-7 -23 141
7 141 7 12 -26 c11 -23 10 -28 -7 -41 -18 -14 -17 -14 13 -15 17 0 60 6 95 14
119 26 197 10 182 -38 -7 -21 -6 -21 15 -2 20 18 48 36 81 53 8 4 24 15 34 25
11 10 32 18 47 18 15 0 31 5 34 10 3 6 17 8 30 6 12 -2 33 1 46 8 27 14 123
21 116 9 -3 -4 20 -8 51 -7 32 0 62 -3 68 -8 7 -5 16 -8 20 -7 24 6 64 -15 64
-33 0 -12 6 -19 18 -17 32 3 42 -1 42 -16 0 -25 -51 -18 -82 12 -23 22 -39 28
-79 29 -64 2 -59 -15 10 -33 66 -16 77 -23 60 -34 -19 -12 -32 -11 -24 1 4 6
-5 10 -20 10 -28 0 -62 16 -83 40 -7 8 -11 9 -7 3 7 -15 -14 -17 -35 -3 -13 8
-12 10 3 10 10 0 17 6 15 12 -6 17 -94 23 -103 7 -6 -9 1 -10 29 -5 23 4 36 3
36 -4 0 -5 -6 -10 -12 -10 -7 0 -5 -5 5 -11 31 -18 18 -26 -33 -21 -29 2 -50
0 -50 -5 0 -18 11 -21 40 -13 21 6 30 4 34 -6 6 -16 -10 -29 -19 -15 -3 6 -12
8 -20 4 -17 -6 -20 -33 -4 -33 21 0 68 34 72 52 7 24 28 23 34 -1 3 -11 11
-17 18 -15 18 7 13 -25 -5 -36 -8 -5 -24 -2 -39 8 -14 9 -23 12 -19 7 4 -4 0
-13 -9 -20 -13 -9 -13 -14 -3 -20 9 -5 11 -4 6 3 -7 11 7 17 29 12 25 -5 41
-9 48 -9 4 -1 7 -6 7 -13 0 -6 -2 -9 -6 -6 -5 6 -47 -2 -92 -16 -16 -5 -22 -4
-20 6 2 9 -5 12 -22 10 -21 -3 -22 -2 -11 11 10 13 8 18 -11 28 -30 16 -40 32
-25 41 8 5 6 9 -6 12 -9 4 -24 8 -33 11 -13 4 -12 8 7 25 l24 19 -32 1 c-18 0
-32 -3 -32 -7 4 -25 -3 -33 -24 -27 -15 3 -38 -3 -63 -16 -55 -31 -64 -40 -64
-62 0 -10 -4 -17 -8 -14 -4 2 -14 1 -22 -5 -13 -7 -12 -9 2 -9 11 0 15 -6 11
-19 -4 -15 0 -20 15 -18 16 1 18 4 10 14 -6 8 -8 16 -4 20 3 3 6 1 6 -6 0 -7
4 -10 9 -6 6 3 8 14 6 25 -3 17 -1 18 16 7 10 -6 19 -16 19 -22 -1 -30 -14
-52 -42 -68 -17 -10 -28 -20 -25 -23 10 -11 77 -10 82 1 3 6 7 5 11 -2 4 -10
13 -10 39 1 18 8 36 11 40 8 3 -4 30 -8 58 -10 29 -1 59 -3 67 -4 8 -1 32 -12
53 -25 21 -13 48 -28 60 -32 12 -5 31 -26 42 -46 18 -35 18 -38 2 -50 -19 -14
-23 -35 -6 -35 5 0 8 -4 4 -9 -3 -6 -8 -29 -11 -53 -7 -51 -7 -51 -37 -53 -12
-1 -22 -8 -22 -16 0 -8 -10 -24 -23 -37 -26 -26 -28 -38 -5 -46 15 -6 15 -8 3
-16 -8 -6 -25 -10 -38 -10 -15 0 -26 -9 -32 -25 -5 -14 -16 -28 -25 -31 -8 -3
-12 -10 -9 -15 3 -5 -1 -9 -9 -9 -8 0 -17 -7 -21 -15 -3 -8 -16 -15 -28 -15
-13 0 -32 -7 -42 -15 -20 -15 -20 -15 0 -16 10 0 -1 -6 -26 -13 -55 -14 -107
-46 -138 -83 -38 -45 -73 -104 -67 -113 3 -4 -4 -10 -15 -13 -11 -3 -20 0 -20
6 0 6 -2 8 -5 5 -10 -9 6 -36 24 -41 10 -2 21 -18 24 -36 13 -61 128 -160 189
-161 28 -1 90 -28 66 -29 -19 -1 -68 -60 -68 -83 0 -8 11 -29 25 -48 14 -19
25 -29 25 -22 0 7 8 12 18 12 15 0 18 -10 18 -71 0 -55 4 -74 17 -84 9 -7 17
-17 17 -24 0 -6 3 -11 8 -11 14 0 92 79 92 93 0 25 45 47 80 41 42 -9 45 -19
15 -51 -14 -16 -33 -45 -42 -65 -9 -21 -23 -38 -32 -38 -21 0 -5 -12 21 -16
80 -11 131 -23 140 -32 15 -15 -36 -92 -60 -92 -10 0 -22 -4 -27 -9 -12 -11
-135 6 -150 20 -17 17 -25 9 -25 -26 0 -19 4 -35 9 -35 8 0 21 -58 24 -107 0
-13 5 -23 9 -23 4 0 8 -9 8 -19 0 -75 -110 10 -206 159 -70 108 -76 127 -53
169 10 19 15 40 11 46 -15 26 -72 85 -82 85 -5 0 -10 13 -10 29 0 16 -7 45
-15 64 -15 37 -35 57 -35 36 0 -8 -4 -8 -15 1 -18 15 -9 34 12 26 11 -5 13 -1
8 17 -4 12 -13 27 -21 33 -8 7 -10 14 -4 20 6 6 3 29 -6 62 -12 39 -20 52 -35
52 -17 0 -18 -5 -13 -42 4 -24 11 -51 16 -60 12 -25 -7 -23 -30 3 -17 17 -20
18 -25 5 -4 -9 -4 -23 -1 -31 4 -10 0 -15 -11 -15 -11 0 -15 5 -11 15 3 9 -2
20 -13 27 -26 16 -16 36 16 30 22 -4 24 -2 18 17 -8 27 18 61 48 61 14 0 17 4
12 17 -5 10 -13 38 -20 63 -10 37 -17 46 -39 48 -22 3 -26 8 -26 38 0 38 6 42
26 16 11 -14 11 -10 0 18 -13 31 -13 37 1 52 13 14 13 19 0 45 -9 15 -25 39
-38 52 -14 15 -18 25 -11 30 7 4 8 12 2 21 -7 12 -11 10 -18 -10 -6 -14 -6
-26 -1 -28 5 -2 9 -19 9 -37 0 -18 4 -35 9 -37 6 -2 4 -30 -5 -68 -8 -36 -16
-89 -19 -119 -7 -74 -18 -81 -13 -8 2 32 1 60 -4 63 -4 3 -8 0 -8 -7 0 -9 -3
-10 -10 -3 -7 7 -7 19 -1 36 7 19 6 25 -5 25 -8 0 -18 -14 -22 -30 -8 -29 -32
-50 -32 -28 0 6 5 11 10 11 6 0 10 6 10 13 0 9 -14 13 -48 11 -26 -1 -37 0
-24 3 30 6 38 27 20 56 -15 23 -13 61 3 52 5 -4 9 -14 9 -25 0 -27 54 -44 73
-22 9 9 16 19 16 22 0 3 3 13 7 24 4 11 2 21 -6 26 -7 4 -9 13 -6 19 4 6 2 11
-3 11 -6 0 -11 6 -11 14 0 8 -5 18 -11 22 -7 4 -9 0 -5 -14 5 -14 1 -21 -15
-25 -11 -3 -18 -10 -15 -16 4 -5 2 -12 -3 -15 -5 -4 -11 6 -13 21 -2 20 -9 29
-26 31 -12 2 -22 10 -22 18 0 8 5 12 10 9 12 -8 13 5 1 24 -5 7 -14 10 -20 7
-6 -4 -11 -4 -10 1 4 25 -2 42 -15 37 -15 -6 -47 38 -38 52 4 5 19 15 35 21
31 14 35 28 11 37 -10 4 -22 -1 -29 -10 -11 -15 -12 -15 -18 5 -3 11 -11 21
-17 21 -10 0 -10 -3 0 -15 16 -19 8 -40 -16 -40 -19 0 -22 -15 -9 -47 5 -13 2
-18 -9 -18 -9 0 -16 5 -16 10 0 7 -6 7 -19 0 -18 -9 -18 -12 -5 -38 7 -16 22
-36 33 -46 16 -15 19 -15 24 -1 4 8 14 15 24 15 11 0 14 3 7 8 -6 4 -14 16
-17 27 -7 19 -7 19 8 1 12 -16 17 -17 30 -6 13 11 15 9 15 -14 0 -17 5 -26 16
-26 11 0 14 -6 8 -22 -13 -46 -64 -80 -64 -43 0 8 5 15 10 15 6 0 10 5 10 10
0 6 -19 10 -42 9 -28 -1 -36 -3 -23 -7 11 -4 20 -13 21 -19 1 -7 2 -23 3 -34
1 -16 6 -20 21 -16 11 3 20 1 20 -4 0 -5 -6 -9 -12 -9 -7 0 -5 -5 5 -11 9 -5
17 -17 17 -24 0 -8 9 -15 19 -15 10 0 21 -7 25 -15 3 -9 0 -15 -8 -15 -19 0
-13 -105 8 -125 8 -8 18 -35 22 -60 3 -25 10 -45 14 -45 4 0 5 11 2 25 -3 19
0 25 12 25 10 0 16 -7 14 -17 -2 -10 3 -18 12 -18 8 0 14 -8 14 -18 -1 -9 2
-17 7 -17 5 0 6 -7 3 -15 -4 -8 -10 -13 -14 -10 -12 7 -40 -5 -40 -17 0 -6 14
-8 35 -5 19 3 35 2 35 -4 0 -5 -5 -9 -11 -9 -5 0 -8 -4 -4 -9 3 -5 1 -12 -5
-16 -12 -8 -13 -35 -1 -35 5 0 11 9 14 20 3 11 11 20 19 19 10 0 10 -2 1 -6
-7 -2 -13 -11 -13 -19 0 -8 6 -14 13 -15 6 0 4 -4 -7 -8 -16 -6 -17 -9 -4 -22
8 -8 17 -29 21 -47 5 -26 3 -32 -11 -33 -11 0 -12 -2 -4 -6 10 -4 9 -10 -4
-30 -10 -16 -11 -22 -3 -17 16 10 59 12 59 3 0 -4 -7 -9 -15 -13 -27 -10 -17
-27 13 -20 24 7 26 6 13 -9 -7 -9 -16 -15 -20 -12 -8 4 -41 -30 -41 -42 0 -3
8 1 19 11 10 9 25 14 35 10 20 -8 20 -18 1 -38 -8 -8 -15 -18 -15 -22 0 -5 5
-3 11 3 18 18 39 3 39 -27 0 -28 -27 -60 -51 -60 -7 0 3 -12 24 -26 21 -14 44
-23 52 -21 7 3 21 -1 32 -8 12 -10 14 -14 4 -15 -10 0 -12 -9 -6 -36 5 -28 2
-40 -12 -54 -10 -9 -28 -29 -40 -44 -23 -26 -34 -30 -86 -26 -15 1 -27 -3 -27
-9 0 -19 -3 -25 -23 -46 -10 -11 -28 -37 -39 -58 -10 -22 -22 -36 -25 -33 -6
6 -33 -19 -33 -31 0 -5 -12 -10 -26 -11 -32 -2 -28 21 4 26 25 4 30 30 7 38
-8 4 -22 1 -30 -6 -9 -7 -19 -10 -22 -6 -4 4 -3 10 3 14 6 4 10 15 9 24 -2 11
2 15 11 11 8 -3 14 -1 14 5 0 10 -23 22 -42 22 -6 0 -8 -6 -5 -14 3 -7 -7 -28
-22 -47 -21 -25 -32 -31 -47 -24 -30 13 -48 11 -55 -4 -3 -8 -13 -15 -23 -17
-14 -2 -15 0 -5 12 9 11 8 14 -2 14 -18 0 -49 -20 -31 -20 6 0 12 -4 12 -10 0
-5 -7 -10 -15 -10 -8 0 -15 5 -15 10 0 6 -7 10 -15 10 -8 0 -15 6 -15 14 0 15
50 69 58 61 3 -3 -7 -16 -22 -29 -21 -17 -24 -25 -13 -29 19 -7 41 8 33 22 -4
6 -2 11 3 11 6 0 11 -6 11 -12 1 -8 6 -5 15 5 7 11 11 25 8 33 -3 8 0 14 6 14
6 0 11 -9 11 -19 0 -13 9 -21 30 -26 16 -4 30 -11 30 -16 0 -5 11 1 25 13 17
15 22 25 15 32 -15 15 -12 36 5 30 10 -4 15 0 15 10 0 13 4 15 19 6 25 -13 41
-13 41 0 0 6 -8 10 -18 8 -9 -2 -16 3 -14 10 1 6 -6 12 -15 13 -12 0 -13 2 -5
6 10 4 10 8 1 19 -9 11 -7 14 9 14 12 0 24 5 28 11 5 9 -7 10 -47 5 -29 -4
-56 -10 -59 -12 -8 -8 22 -22 37 -17 7 3 13 -2 13 -11 0 -18 -25 -22 -36 -5
-3 6 -17 8 -31 4 -16 -4 -24 -2 -21 5 2 6 7 10 10 8 13 -6 34 34 32 62 -2 35
23 48 42 23 7 -10 14 -22 14 -26 0 -14 30 20 30 34 0 10 -3 10 -12 1 -17 -17
-33 -15 -18 3 17 21 -13 31 -47 16 -14 -6 -28 -9 -31 -7 -2 3 7 10 22 15 15 6
26 18 25 28 0 10 -3 13 -5 8 -2 -6 -20 -9 -40 -7 -29 4 -36 1 -41 -17 -3 -11
-8 -22 -12 -22 -38 -7 -61 -6 -61 3 0 6 11 8 25 6 14 -3 25 -2 25 2 0 11 34
45 49 48 7 1 20 9 28 17 13 13 10 15 -21 15 -19 0 -38 5 -41 11 -4 6 -1 9 6 8
22 -4 79 12 79 22 0 5 -11 11 -25 15 l-25 6 25 26 c31 31 31 36 0 60 -14 11
-25 25 -25 30 0 6 -10 12 -22 14 -28 4 -31 42 -6 71 l19 22 -10 -22 c-14 -27
-14 -46 -1 -38 6 3 13 0 16 -9 3 -8 14 -14 24 -13 19 1 19 2 0 19 -25 24 -26
48 -1 55 11 3 21 13 24 24 3 12 1 17 -6 12 -7 -4 -8 0 -4 12 4 9 2 24 -4 31
-9 11 -8 18 1 29 10 13 9 15 -11 16 l-24 0 22 9 c16 7 21 14 16 26 -4 11 -3
15 5 10 6 -3 13 -2 16 3 3 5 -2 12 -11 16 -10 3 -19 1 -21 -4 -2 -6 -8 -11
-14 -11 -7 0 -7 4 0 13 17 21 3 55 -26 62 -20 5 -23 8 -12 15 8 5 11 13 6 17
-4 4 -13 0 -20 -10 -17 -23 -23 -22 -21 5 1 12 8 24 16 26 8 2 19 11 26 20 10
12 15 13 28 2 18 -15 20 1 3 18 -10 10 -10 14 0 21 19 11 22 109 4 116 -20 7
-24 6 -17 -5 3 -5 -7 -5 -25 1 -16 6 -30 17 -30 25 0 9 -6 11 -18 7 -15 -6
-15 -5 -3 10 12 15 10 18 -10 26 -13 5 -18 10 -11 10 14 1 17 47 3 56 -6 3 -4
22 5 47 11 33 12 43 2 49 -12 7 -52 3 -70 -8 -14 -8 -8 -33 7 -33 8 0 15 -7
15 -15 0 -8 -9 -15 -20 -15 -11 0 -20 6 -20 13 0 9 -10 12 -30 9 -22 -3 -30
-10 -30 -25 0 -19 -1 -20 -20 -2 -33 30 -25 45 24 45 53 0 71 18 27 26 -42 9
-29 29 19 29 27 0 47 7 60 21 18 17 19 24 9 53 -10 29 -15 32 -38 26 -14 -4
-30 -13 -35 -22 -7 -12 -10 -11 -20 8 -6 13 -18 24 -26 25 -20 0 -60 -17 -60
-26 0 -4 -9 -10 -21 -13 -11 -3 -23 -15 -26 -26 -3 -12 -10 -21 -15 -21 -6 0
-8 7 -4 15 3 9 0 15 -9 15 -7 0 -20 6 -28 14 -12 12 -16 10 -31 -15 l-18 -30
25 6 c22 6 24 4 20 -18 -4 -19 -9 -23 -26 -19 -17 4 -19 2 -14 -17 4 -15 -1
-29 -14 -42 -19 -19 -18 -45 2 -34 5 4 9 -6 9 -20 0 -27 6 -28 98 -9 23 5 30
-10 11 -22 -6 -3 -32 -8 -57 -10 -33 -3 -51 -10 -63 -25 -10 -13 -19 -18 -23
-11 -3 6 0 12 6 15 10 4 10 7 1 18 -11 11 -16 9 -28 -7 -11 -14 -14 -48 -15
-131 0 -62 2 -113 5 -113 3 0 10 11 15 25 5 14 15 25 21 25 8 0 8 -4 1 -13 -6
-7 -9 -22 -6 -34 4 -15 0 -22 -15 -26 -20 -5 -21 -12 -21 -116 l0 -110 35 -7
c45 -8 45 -20 0 -19 l-35 2 1 -89 c0 -48 5 -88 9 -88 5 0 24 8 42 19 42 24 99
38 81 20 -10 -10 -2 -17 35 -35 26 -13 60 -28 75 -34 27 -9 33 -35 10 -35 -6
0 -15 -3 -19 -8 -10 -10 28 -9 45 2 7 5 11 17 7 27 -3 11 -1 26 4 34 8 12 10
10 10 -9 0 -13 10 -33 22 -44 16 -14 18 -18 6 -14 -9 3 -22 -1 -28 -9 -7 -8
-8 -14 -2 -14 5 0 12 -9 15 -19 3 -14 1 -18 -9 -14 -8 3 -14 9 -14 14 0 6 -8
5 -19 -1 -30 -16 -43 -12 -36 10 4 11 2 20 -4 20 -6 0 -10 -6 -9 -12 2 -7 -7
-14 -19 -16 -16 -2 -23 2 -23 12 0 9 -5 16 -11 16 -5 0 -7 -4 -4 -10 3 -5 -1
-10 -10 -10 -9 0 -14 4 -11 9 4 5 -3 7 -14 4 -22 -6 -28 12 -7 20 6 3 1 6 -13
6 -19 1 -21 4 -12 13 24 24 14 37 -25 33 -21 -2 -46 -4 -55 -4 -15 -1 -18 -10
-18 -51 0 -27 4 -50 9 -50 5 0 8 8 6 18 -1 9 0 11 2 4 3 -6 9 -12 14 -12 16 0
23 32 11 51 -16 25 -15 30 3 23 8 -4 15 -18 15 -33 0 -20 2 -23 10 -11 11 18
23 8 14 -13 -3 -9 -19 -19 -35 -22 -25 -6 -28 -10 -23 -33 5 -26 5 -26 -10 -8
-15 19 -16 18 -16 -22 0 -23 5 -42 10 -42 7 0 7 -6 0 -19 -5 -11 -10 -45 -10
-76 0 -46 3 -56 15 -52 8 4 17 2 20 -2 2 -5 -4 -11 -15 -14 -17 -4 -19 -14
-18 -105 l0 -100 29 10 c16 6 35 8 43 5 7 -3 18 -1 24 5 8 8 16 7 28 -3 10 -8
15 -9 11 -3 -4 6 3 20 14 30 20 18 20 18 13 -10 -5 -21 -4 -27 5 -22 6 4 11
18 11 31 0 13 5 27 10 30 6 4 8 10 6 14 -3 4 1 8 9 8 8 0 15 -4 15 -9 0 -4 -4
-8 -9 -8 -5 0 -8 -11 -8 -25 0 -27 8 -31 38 -14 31 16 43 6 22 -18 -14 -16
-23 -19 -36 -12 -22 13 -22 3 0 -20 27 -28 129 -29 154 -2 11 11 19 25 19 30
0 6 6 8 14 5 8 -3 16 1 18 10 2 11 7 13 17 6 12 -7 10 -11 -11 -21 -16 -7 -24
-17 -21 -25 4 -10 0 -12 -13 -7 -12 4 -15 3 -10 -5 10 -17 76 -16 76 1 0 19
20 36 36 30 8 -3 14 -14 14 -24 0 -10 7 -19 15 -19 8 0 15 6 15 14 0 8 10 14
25 14 26 0 34 -13 13 -21 -7 -3 517 -6 1164 -6 925 -1 1177 2 1181 12 4 9 7 9
18 -1 13 -12 49 -17 49 -6 0 4 -8 13 -17 21 -17 14 -17 14 0 9 14 -4 17 1 17
34 0 22 -4 40 -10 40 -5 0 -10 5 -10 11 0 5 5 7 10 4 6 -4 10 20 10 64 0 50
-4 71 -12 71 -10 0 -9 3 1 9 11 7 11 9 0 14 -10 4 -10 6 -1 6 6 1 12 9 11 19
0 10 -3 12 -6 5 -7 -18 -23 -16 -23 2 0 8 7 15 15 15 10 0 15 10 15 30 0 17
-5 30 -11 30 -6 0 -9 -7 -6 -15 4 -8 2 -17 -3 -20 -9 -6 -15 17 -10 40 1 5 2
17 3 26 1 9 7 15 14 12 17 -7 17 14 1 20 -9 4 -9 8 -3 14 14 11 19 83 6 83
-15 0 -26 -23 -13 -28 6 -2 8 -10 5 -17 -4 -12 -7 -12 -19 0 -16 16 -18 35 -4
35 6 0 9 6 8 13 -2 6 5 11 15 11 15 -2 17 9 16 107 0 76 -4 109 -12 109 -8 0
-8 3 1 8 9 6 11 23 7 58 -4 27 -7 59 -8 71 -2 17 -17 30 -66 53 -35 17 -69 29
-75 26 -6 -2 -4 -5 4 -5 8 -1 -1 -11 -20 -23 -19 -12 -45 -21 -57 -19 -25 3
-39 -14 -18 -23 8 -3 15 -1 15 4 0 6 4 10 8 10 11 0 3 -58 -8 -65 -5 -3 -11
-1 -15 5 -3 5 0 10 7 10 7 0 2 9 -12 20 -20 15 -23 21 -12 31 14 15 16 33 2
24 -5 -3 -10 -1 -10 4 0 6 -3 10 -7 10 -19 -3 -33 2 -33 11 0 6 11 10 25 10
14 0 25 -4 25 -9 0 -5 7 -12 16 -15 14 -5 15 -4 5 8 -6 7 -9 22 -5 32 5 16 4
16 -5 4 -6 -8 -11 -10 -11 -4 0 7 -11 14 -25 16 -19 4 -23 2 -15 -7 8 -10 3
-14 -23 -17 -25 -3 -33 0 -33 13 0 9 6 15 12 12 17 -6 25 10 13 27 -6 11 -9
12 -9 2 0 -7 -5 -10 -10 -7 -7 4 -7 12 0 25 7 13 6 19 -3 23 -20 7 -37 -4 -37
-24 0 -18 -1 -18 -18 -1 -11 10 -16 27 -14 42 l3 25 -18 -28 c-22 -34 -31 -34
-39 -2 -3 14 -12 25 -18 25 -15 0 -36 -20 -36 -34 0 -6 4 -5 9 2 6 11 11 10
24 -3 14 -13 14 -20 4 -35 -14 -24 -23 -25 -31 -4 -3 8 -2 12 4 9 6 -3 10 -1
10 4 0 6 -7 11 -15 11 -9 0 -18 7 -21 15 -4 8 -10 12 -15 9 -5 -3 -9 4 -9 15
0 11 -5 23 -12 27 -7 5 -9 0 -6 -14 4 -15 -1 -26 -20 -38 -24 -15 -25 -15 -19
1 4 9 7 28 7 41 0 14 4 23 9 20 5 -4 17 -3 26 0 13 5 11 9 -12 21 -25 13 -29
12 -40 -3 -7 -10 -16 -14 -20 -10 -4 4 0 12 10 17 22 13 22 32 0 26 -10 -2
-33 5 -50 15 -28 16 -32 17 -27 4 4 -11 1 -16 -10 -16 -9 0 -16 -4 -16 -9 0
-12 27 -22 43 -15 9 3 18 -10 27 -37 11 -33 12 -43 2 -47 -7 -2 -19 -11 -28
-19 -13 -13 -13 -17 -2 -24 10 -7 9 -9 -4 -9 -9 0 -19 -6 -21 -12 -4 -10 -8
-9 -16 2 -7 11 -5 20 11 37 12 13 17 23 12 23 -5 0 -16 -9 -24 -20 -8 -11 -20
-20 -26 -20 -7 0 -15 -7 -18 -16 -9 -23 -8 -24 13 -24 10 0 25 -8 32 -17 7
-10 10 -15 5 -11 -4 3 -23 0 -42 -8 -19 -8 -39 -12 -44 -9 -6 3 -7 -1 -4 -9 3
-9 1 -16 -5 -16 -20 0 -12 48 9 55 11 4 18 11 14 16 -3 5 -10 7 -15 4 -5 -4
-9 -2 -9 4 0 5 5 13 10 16 14 9 13 18 -6 41 -8 10 -13 14 -10 7 4 -6 2 -14 -4
-18 -11 -7 -13 18 -4 52 4 13 10 20 15 17 5 -3 6 3 4 13 -3 10 0 8 7 -5 9 -19
9 -25 -3 -33 -11 -7 -11 -9 4 -9 10 0 21 10 26 23 5 12 11 21 15 20 7 -4 8 6
0 29 -3 10 -11 15 -20 11 -7 -3 -14 -1 -14 5 0 12 56 33 64 25 3 -4 6 1 6 10
0 13 -6 14 -32 6 -17 -5 -36 -13 -42 -19 -5 -5 -13 -10 -17 -10 -12 0 -21 78
-11 96 8 14 0 27 -42 66 -39 37 -46 47 -28 43 12 -2 23 1 23 8 5 44 4 65 -3
60 -5 -2 -6 -14 -3 -26 6 -21 6 -22 -9 -3 -9 11 -16 28 -16 37 0 10 -3 24 -6
33 -4 11 1 19 17 24 l23 9 -23 6 c-13 3 -20 10 -16 16 4 7 15 5 32 -6 15 -10
38 -16 51 -14 20 2 24 -1 18 -14 -5 -14 -2 -16 19 -11 15 4 25 2 25 -5 0 -6
-8 -13 -18 -16 -13 -3 -19 -14 -19 -34 0 -31 6 -36 25 -17 9 9 12 8 12 -5 0
-9 4 -17 10 -17 5 0 7 7 4 15 -7 16 6 19 44 9 12 -4 22 -13 22 -21 0 -12 -3
-13 -15 -3 -19 16 -40 3 -24 -16 16 -20 59 -18 59 2 0 13 3 14 15 4 8 -6 19
-9 25 -5 15 9 25 -24 11 -38 -8 -8 -11 -7 -11 3 -1 11 -5 10 -15 -4 -19 -25
-19 -42 -1 -27 10 8 16 9 21 1 3 -5 0 -13 -9 -16 -19 -7 -8 -36 13 -32 9 1 21
-1 28 -5 6 -4 15 -2 19 5 4 7 4 10 -1 6 -12 -12 -35 19 -35 48 0 23 2 25 15
14 9 -7 13 -20 10 -29 -4 -11 -3 -13 5 -5 7 7 6 19 -6 42 -19 40 -10 60 17 36
17 -16 19 -16 19 -1 0 10 6 17 14 17 9 0 12 -7 9 -20 -3 -11 0 -20 6 -20 6 0
11 -8 11 -17 1 -15 3 -15 19 5 25 29 30 28 29 -5 -1 -52 2 -63 17 -63 8 0 15
7 15 15 0 20 10 19 40 -5 22 -17 23 -19 7 -25 -9 -4 -25 -4 -34 0 -15 5 -16 4
-5 -7 7 -7 18 -13 25 -13 7 0 11 -11 9 -24 -2 -19 2 -22 18 -18 12 3 18 1 14
-5 -4 -5 -24 -8 -45 -6 -22 2 -39 3 -39 2 0 -4 67 -44 73 -44 4 0 4 7 1 15 -5
13 3 15 52 11 43 -4 53 -3 36 4 -13 6 -20 14 -17 20 10 15 35 12 42 -6 4 -11
8 -12 13 -4 4 7 13 9 19 6 6 -4 9 -11 6 -16 -11 -18 19 -61 47 -67 15 -3 26
-8 24 -12 -3 -4 11 -11 30 -17 40 -13 46 -3 9 14 -14 7 -30 22 -35 34 -5 13
-9 17 -9 11 -1 -18 -30 -16 -37 1 -5 14 -11 41 -13 59 -1 4 -9 7 -19 7 -10 0
-28 7 -41 16 -13 9 -26 13 -30 8 -3 -5 -17 -18 -30 -29 -21 -17 -23 -18 -18
-3 3 10 2 20 -3 23 -5 3 -7 12 -4 20 4 8 10 12 15 9 5 -3 12 2 15 10 5 14 8
14 27 1 15 -10 24 -11 34 -4 9 8 15 5 24 -15 7 -14 18 -26 26 -26 7 0 13 -4
13 -10 0 -5 5 -10 11 -10 5 0 7 5 3 11 -4 7 -1 10 7 7 7 -2 16 -15 20 -29 4
-13 7 -18 8 -11 2 21 21 13 21 -9 0 -15 4 -19 19 -14 11 3 22 1 25 -4 4 -6 12
-8 19 -6 7 3 19 0 27 -5 13 -9 13 -11 1 -19 -18 -11 -24 -103 -7 -113 6 -4 21
2 33 14 24 23 31 58 11 58 -6 0 -8 3 -5 7 4 3 1 13 -6 21 -10 13 -9 15 5 9 16
-5 17 4 17 98 0 82 -3 105 -14 105 -7 0 -16 6 -18 13 -3 6 -6 2 -6 -10 -1 -12
5 -24 12 -26 8 -4 9 -6 0 -6 -6 -1 -18 6 -27 14 -18 18 -30 20 -20 3 6 -10 4
-10 -7 -2 -8 5 -21 10 -29 10 -22 -2 -49 25 -43 41 4 11 -1 12 -22 7 -24 -6
-26 -4 -21 14 6 17 1 20 -31 24 -22 3 -49 -1 -63 -8 l-25 -13 28 -1 c15 0 27
-4 27 -10 0 -11 -24 -13 -57 -4 -15 4 -23 14 -23 28 0 15 3 17 9 8 12 -20 24
15 11 36 -9 16 -9 16 -10 1 0 -17 -30 -36 -30 -19 0 5 -18 13 -40 16 -45 7
-48 11 -23 30 25 17 10 28 -18 13 -31 -16 -95 -13 -122 6 -12 9 -20 16 -18 18
2 1 1 11 -3 23 -5 15 -21 23 -68 33 -39 8 -63 9 -67 3 -10 -17 -63 -2 -56 15
4 12 0 14 -15 10 -11 -3 -20 -1 -20 4 0 5 -5 9 -11 9 -5 0 -8 -4 -5 -9 3 -5
-1 -12 -10 -15 -12 -5 -15 -2 -10 11 6 15 4 15 -14 -2 -13 -12 -20 -14 -20 -5
0 7 -7 10 -16 6 -9 -3 -12 -2 -9 5 4 6 0 9 -11 7 -16 -3 -20 7 -27 61 -6 49
-5 66 5 73 12 7 4 12 -14 9 -12 -2 -9 14 4 27 9 9 7 12 -10 12 -12 0 -22 6
-22 14 0 8 8 13 18 11 57 -12 82 -14 82 -7 0 9 -72 32 -99 32 -16 0 -47 30
-89 85 -16 20 -21 45 -11 51 6 3 16 -1 22 -9 7 -9 35 -18 62 -22 54 -6 92 -12
140 -20 17 -3 70 -10 119 -15 49 -6 92 -12 95 -15 10 -11 -17 -26 -48 -27 -43
-1 -42 -28 2 -28 17 0 47 -4 64 -9 36 -11 101 5 119 27 7 10 20 12 44 7 24 -5
29 -10 19 -16 -23 -14 -4 -10 27 6 16 8 36 15 46 15 28 0 13 -34 -23 -52 l-34
-16 30 -12 c34 -13 40 -11 40 9 0 29 23 21 30 -9 5 -25 11 -31 26 -27 10 3 36
0 58 -5 32 -8 46 -7 72 6 40 20 39 20 39 -4 0 -26 13 -25 25 2 6 12 17 24 25
26 12 4 11 1 -2 -15 -22 -24 -23 -43 -3 -43 8 0 15 -4 15 -10 0 -13 53 -9 62
5 4 5 8 153 8 329 0 313 0 318 -20 313 -11 -3 -23 -1 -26 5 -4 6 -9 6 -14 -2
-5 -9 -44 -13 -121 -14 -66 -1 -123 -7 -136 -14 -12 -7 -54 -12 -93 -12 -66 0
-71 2 -80 25 -11 30 -36 33 -45 5 -8 -24 -18 -25 -39 -5 -8 8 -20 15 -26 15
-6 0 -18 6 -26 14 -12 13 -18 13 -42 0 -37 -19 -49 -18 -62 7 -9 16 -18 19
-36 15 l-24 -6 0 239 c0 200 -2 241 -15 251 -8 7 -16 11 -17 9z m-11 -546 c-2
-21 -4 -4 -4 37 0 41 2 58 4 38 2 -21 2 -55 0 -75z m-167 -63 c0 -5 -5 -10
-11 -10 -5 0 -7 5 -4 10 3 6 8 10 11 10 2 0 4 -4 4 -10z m-1095 -20 c-3 -5
-13 -10 -21 -10 -8 0 -14 5 -14 10 0 6 9 10 21 10 11 0 17 -4 14 -10z m925 6
c0 -2 -7 -6 -15 -10 -8 -3 -15 -1 -15 4 0 6 7 10 15 10 8 0 15 -2 15 -4z m60
-6 c0 -5 -7 -10 -15 -10 -8 0 -15 5 -15 10 0 6 7 10 15 10 8 0 15 -4 15 -10z
m-1002 -82 c-5 -22 -32 -48 -50 -48 -13 0 -18 8 -18 30 0 28 3 30 35 30 22 0
34 -5 33 -12z m212 8 c0 -2 -13 -6 -29 -8 -17 -2 -28 -1 -25 4 5 8 54 12 54 4z
m220 -108 c0 -6 -6 -5 -15 2 -8 7 -15 14 -15 16 0 2 7 1 15 -2 8 -4 15 -11 15
-16z m260 8 c0 -3 -4 -8 -10 -11 -5 -3 -10 -1 -10 4 0 6 5 11 10 11 6 0 10 -2
10 -4z m-333 -118 c-3 -8 -6 -5 -6 6 -1 11 2 17 5 13 3 -3 4 -12 1 -19z m1218
-99 c5 -6 3 -9 -5 -10 -8 0 -27 -2 -42 -4 -16 -2 -32 3 -40 13 -10 12 -10 14
0 8 6 -4 12 -3 12 3 0 12 59 4 75 -10z m-535 -53 c0 -26 -6 -18 -14 19 -5 22
-4 26 4 15 5 -8 10 -24 10 -34z m758 24 c7 -11 8 -20 2 -20 -5 0 -14 9 -20 20
-6 11 -7 20 -3 20 5 0 14 -9 21 -20z m72 0 c0 -4 22 -7 49 -6 73 3 96 -9 46
-22 -26 -8 -43 -8 -49 -2 -13 13 -66 13 -66 0 0 -5 -7 -10 -15 -10 -8 0 -15 5
-15 10 0 6 7 10 15 10 8 0 15 5 15 10 0 6 -5 10 -11 10 -5 0 -8 4 -4 10 6 10
35 2 35 -10z m153 -30 c-3 -11 -7 -20 -9 -20 -2 0 -4 9 -4 20 0 11 4 20 9 20
5 0 7 -9 4 -20z m-110 -15 c7 -16 -8 -29 -23 -20 -10 6 -2 35 10 35 4 0 10 -7
13 -15z m-451 -269 c5 -7 8 -6 8 4 1 12 3 11 11 -3 11 -18 5 -37 -12 -37 -6 0
-8 4 -5 9 3 5 -10 8 -30 6 -20 -2 -42 -1 -50 2 -21 8 -5 25 17 18 13 -4 19 -2
19 9 0 17 29 11 42 -8z m-2077 -16 c-4 -6 5 -10 19 -10 17 0 26 -6 26 -15 0
-27 -30 -29 -56 -4 -23 21 -23 24 -7 30 25 10 25 10 18 -1z m-55 -10 c0 -5 -7
-10 -16 -10 -8 0 -12 5 -9 10 3 6 10 10 16 10 5 0 9 -4 9 -10z m1534 -19 c-2
-3 -12 3 -22 13 -16 17 -16 18 5 5 12 -7 20 -15 17 -18z m656 3 c0 -8 -5 -12
-10 -9 -6 4 -8 11 -5 16 9 14 15 11 15 -7z m-2266 -39 c3 -8 1 -15 -3 -15 -5
0 -11 7 -15 15 -3 8 -1 15 3 15 5 0 11 -7 15 -15z m131 5 c3 -5 1 -10 -4 -10
-6 0 -11 5 -11 10 0 6 2 10 4 10 3 0 8 -4 11 -10z m1625 -16 c0 -16 -16 -19
-25 -4 -3 6 -1 10 5 10 6 0 8 5 4 12 -4 7 -3 8 4 4 7 -4 12 -14 12 -22z m305
16 c3 -5 1 -10 -4 -10 -6 0 -11 5 -11 10 0 6 2 10 4 10 3 0 8 -4 11 -10z m112
4 c-3 -3 -12 -4 -19 -1 -8 3 -5 6 6 6 11 1 17 -2 13 -5z m-2140 -36 c-3 -8 -6
-5 -6 6 -1 11 2 17 5 13 3 -3 4 -12 1 -19z m1783 12 c12 -8 9 -10 -12 -10 -16
0 -28 5 -28 10 0 13 20 13 40 0z m337 4 c-3 -3 -12 -4 -19 -1 -8 3 -5 6 6 6
11 1 17 -2 13 -5z m-2037 -24 c0 -5 -4 -10 -10 -10 -5 0 -10 5 -10 10 0 6 5
10 10 10 6 0 10 -4 10 -10z m-49 -27 c7 -18 6 -30 -1 -37 -16 -16 -29 5 -23
37 7 34 11 34 24 0z m1609 13 c0 -2 -7 -7 -16 -10 -8 -3 -12 -2 -9 4 6 10 25
14 25 6z m-270 -21 c0 -18 -24 -30 -40 -20 -8 5 -5 11 7 21 24 18 33 17 33 -1z
m1010 -3 c0 -7 5 -10 10 -7 20 12 39 -3 33 -25 -6 -21 -30 -22 -25 -1 1 6 -10
11 -24 11 -16 0 -23 4 -18 11 3 6 0 15 -7 20 -10 6 -7 8 9 6 12 0 22 -7 22
-15z m-796 -17 c-16 -25 -34 -33 -34 -16 0 7 37 38 48 40 1 1 -5 -10 -14 -24z
m1026 15 c0 -5 -7 -10 -15 -10 -8 0 -15 5 -15 10 0 6 7 10 15 10 8 0 15 -4 15
-10z m-2476 -16 c18 -7 12 -24 -10 -24 -8 0 -14 7 -14 15 0 17 2 18 24 9z
m2509 -25 c4 -16 3 -18 -9 -8 -7 6 -11 15 -8 20 8 13 11 11 17 -12z m-2577 3
c-6 -10 47 -52 64 -52 5 0 10 -6 10 -12 0 -9 4 -8 10 2 8 12 10 11 10 -6 0
-33 -11 -36 -37 -8 -12 14 -28 22 -33 19 -15 -9 -53 32 -47 49 4 9 11 16 17
16 6 0 9 -4 6 -8z m574 -6 c0 -15 -14 -35 -21 -30 -15 9 -10 34 6 34 8 0 15
-2 15 -4z m1960 -16 c0 -5 -2 -10 -4 -10 -3 0 -8 5 -11 10 -3 6 -1 10 4 10 6
0 11 -4 11 -10z m-33 -22 c-3 -8 -6 -5 -6 6 -1 11 2 17 5 13 3 -3 4 -12 1 -19z
m-2527 -3 c13 -16 3 -20 -24 -9 -9 3 -13 10 -10 15 8 13 20 11 34 -6z m2603
-21 c-2 -6 -17 -11 -33 -12 -18 0 -27 4 -24 11 2 7 17 12 33 12 17 0 27 -5 24
-11z m47 6 c0 -5 -5 -10 -11 -10 -5 0 -7 5 -4 10 3 6 8 10 11 10 2 0 4 -4 4
-10z m-2481 -16 c7 4 11 -1 11 -13 0 -18 -16 -38 -25 -29 -2 1 -6 17 -10 33
-5 21 -4 26 3 16 5 -7 15 -10 21 -7z m429 2 c-7 -8 -15 -12 -17 -11 -5 6 10
25 20 25 5 0 4 -6 -3 -14z m-546 -17 c-15 -13 -82 -18 -82 -6 0 8 17 12 45 12
24 0 41 -3 37 -6z m2608 1 c8 -5 11 -12 8 -16 -10 -9 -38 3 -38 16 0 12 10 13
30 0z m-2820 -54 c0 -5 -8 -1 -19 10 -10 10 -16 23 -13 28 5 10 32 -21 32 -38z
m110 34 c0 -5 -5 -10 -11 -10 -5 0 -7 5 -4 10 3 6 8 10 11 10 2 0 4 -4 4 -10z
m164 -21 c-3 -5 -8 -8 -12 -5 -4 2 -16 0 -27 -5 -17 -6 -17 -8 -2 -8 9 -1 17
-8 17 -17 0 -8 5 -12 10 -9 6 4 7 12 3 18 -5 8 -2 8 9 0 8 -7 18 -10 21 -6 10
10 57 13 57 4 0 -18 -27 -30 -54 -25 -22 4 -29 0 -33 -16 -3 -11 -11 -20 -18
-20 -7 0 -15 -9 -18 -20 -6 -23 -39 -26 -80 -7 -17 8 -25 18 -22 28 4 12 -1
15 -24 11 -20 -3 -28 -8 -24 -18 3 -8 1 -14 -4 -14 -5 0 -9 10 -10 22 -1 11
-8 25 -15 29 -9 6 -8 13 6 28 21 23 36 27 36 10 0 -5 -4 -8 -9 -5 -9 6 -22
-29 -14 -37 8 -8 43 5 37 14 -12 20 25 40 61 33 27 -5 36 -3 41 10 4 10 13 15
20 12 7 -3 16 -1 19 4 3 5 12 7 20 4 8 -4 12 -10 9 -15z m2630 -5 c3 -8 2 -12
-4 -9 -6 3 -10 1 -10 -6 0 -7 -3 -10 -6 -6 -7 6 2 37 10 37 2 0 7 -7 10 -16z
m-2484 -12 c0 -15 -11 -21 -27 -15 -12 5 -12 7 -1 14 17 11 28 11 28 1z m1062
-24 c-9 -9 -12 -7 -12 12 0 19 3 21 12 12 9 -9 9 -15 0 -24z m-1024 -34 c9 -9
9 -15 1 -20 -6 -3 -15 0 -20 7 -6 11 -11 11 -20 2 -10 -10 -9 -14 4 -19 26
-10 20 -34 -8 -34 -22 0 -25 4 -25 33 0 19 2 36 5 38 9 10 50 5 63 -7z m1628
-10 c-7 -25 -28 -54 -40 -54 -3 0 -6 9 -6 20 0 11 6 20 14 20 8 0 18 9 21 20
9 30 18 24 11 -6z m-1327 -23 c-1 -13 -2 -13 -6 2 -2 9 -9 17 -14 17 -5 0 -9
5 -9 11 0 8 5 8 15 -1 8 -7 14 -20 14 -29z m18 -3 c-3 -8 -6 -5 -6 6 -1 11 2
17 5 13 3 -3 4 -12 1 -19z m1533 8 c0 -8 -4 -18 -10 -21 -5 -3 -10 -4 -10 -1
0 2 -3 11 -6 20 -4 11 -1 16 10 16 9 0 16 -6 16 -14z m-849 -53 c2 -32 -2 -48
-18 -67 -45 -52 -47 -97 -5 -111 23 -7 102 -89 102 -105 0 -12 -6 -9 -67 32
-24 16 -43 34 -43 41 0 7 -16 22 -35 35 -36 23 -47 52 -20 52 11 0 12 5 5 25
-8 21 -5 27 20 45 18 12 34 37 41 61 7 21 13 38 15 37 1 -2 4 -22 5 -45z
m1443 32 c-7 -16 -24 -21 -24 -6 0 8 7 13 27 20 1 1 0 -6 -3 -14z m-2854 1 c0
-2 -9 -6 -20 -9 -11 -3 -20 -1 -20 4 0 5 9 9 20 9 11 0 20 -2 20 -4z m49 -20
c-2 -2 -17 -6 -34 -9 l-30 -6 30 13 c26 12 47 13 34 2z m89 -9 c20 -16 15 -40
-8 -34 -13 3 -20 0 -20 -10 0 -23 28 -46 48 -38 9 4 41 9 71 11 29 3 56 5 60
6 21 2 29 -4 24 -22 -6 -23 -23 -27 -23 -5 0 18 -9 19 -45 5 -14 -5 -23 -14
-20 -20 3 -5 -1 -10 -10 -10 -10 0 -14 5 -10 13 4 6 -3 1 -14 -12 -21 -23 -27
-41 -15 -41 4 0 13 8 21 18 11 12 13 13 10 2 -2 -8 0 -26 4 -40 8 -22 8 -23
-5 -7 -14 18 -32 24 -21 7 4 -6 -5 -10 -19 -10 -17 0 -26 -6 -26 -16 0 -11 -6
-13 -19 -9 -11 3 -22 1 -26 -5 -4 -7 -13 -4 -23 8 -10 10 -23 17 -30 14 -11
-3 -11 0 -1 16 7 11 17 18 23 16 6 -2 25 7 41 21 l30 26 -32 -6 c-26 -5 -33
-3 -33 9 0 9 5 16 11 16 5 0 7 5 3 11 -3 6 -9 7 -13 3 -12 -18 -81 -29 -81
-14 0 7 8 9 20 5 14 -4 20 -2 20 8 0 9 -3 17 -7 20 -5 2 -3 2 4 1 7 -2 19 3
27 11 19 19 27 19 20 0 -5 -11 -2 -13 10 -9 12 5 13 10 5 25 -7 13 -6 19 1 19
7 0 9 8 5 20 -5 16 -3 19 12 13 10 -3 24 -10 31 -16z m62 8 c0 -8 -6 -15 -12
-15 -9 0 -8 -4 2 -10 14 -9 13 -10 -17 -10 -7 0 -8 9 -4 40 2 16 31 11 31 -5z
m-240 -16 c0 -5 5 -7 10 -4 6 3 10 1 10 -4 0 -13 -3 -13 -24 -5 -18 7 -22 24
-6 24 6 0 10 -5 10 -11z m2365 2 c3 -5 1 -12 -5 -16 -5 -3 -10 1 -10 9 0 18 6
21 15 7z m-2075 -16 c-7 -8 -17 -15 -22 -15 -6 0 -5 7 2 15 7 8 17 15 22 15 6
0 5 -7 -2 -15z m1743 -11 c-1 -10 0 -13 3 -6 8 16 34 15 34 -2 0 -15 -33 -27
-46 -17 -15 11 -17 54 -2 49 7 -3 12 -14 11 -24z m480 -5 c21 -22 9 -34 -13
-14 -16 15 -17 14 -17 -9 0 -16 6 -28 18 -31 17 -6 17 -8 4 -21 -17 -17 -21
-39 -5 -29 6 3 10 2 10 -3 0 -6 -7 -13 -16 -16 -13 -5 -15 -1 -11 20 3 19 -1
28 -17 34 -12 5 -15 9 -6 9 10 1 11 4 2 13 -8 8 -8 17 -1 31 8 14 8 18 0 13
-6 -4 -11 -1 -11 8 0 20 41 16 63 -5z m-2433 1 c0 -5 -4 -10 -10 -10 -5 0 -10
5 -10 10 0 6 5 10 10 10 6 0 10 -4 10 -10z m690 4 c0 -3 -7 -12 -15 -20 -12
-13 -15 -13 -15 -1 0 7 3 17 7 20 8 8 23 9 23 1z m-730 -18 c0 -18 -13 -27
-51 -33 l-30 -4 21 21 c18 18 24 20 31 9 7 -11 9 -10 9 4 0 9 5 17 10 17 6 0
10 -6 10 -14z m210 4 c0 -5 -5 -10 -11 -10 -5 0 -7 5 -4 10 3 6 8 10 11 10 2
0 4 -4 4 -10z m2305 -30 c-3 -40 -11 -46 -25 -20 -9 16 -9 25 1 36 18 22 27
17 24 -16z m-981 2 c3 -5 -4 -23 -15 -41 -22 -36 -52 -39 -57 -4 -5 31 57 70
72 45z m451 -2 c3 -5 1 -10 -4 -10 -6 0 -11 5 -11 10 0 6 2 10 4 10 3 0 8 -4
11 -10z m379 -17 c6 -14 9 -15 15 -4 6 10 10 9 14 -4 4 -10 0 -18 -11 -22 -9
-4 -22 -13 -28 -21 -9 -12 -13 -12 -19 -2 -4 7 -2 16 5 20 9 6 8 10 -5 18 -10
5 -15 14 -11 21 11 17 33 13 40 -6z m-1594 -9 c0 -2 -7 -4 -15 -4 -8 0 -15 4
-15 10 0 5 7 7 15 4 8 -4 15 -8 15 -10z m1272 -44 c5 0 8 -7 8 -15 0 -11 -5
-12 -24 -5 -21 8 -25 6 -28 -12 -2 -12 -9 -24 -17 -26 -11 -4 -13 3 -7 29 3
19 11 36 16 37 6 2 10 13 10 25 1 20 2 20 18 -5 9 -16 20 -28 24 -28z m268 19
c0 -5 -12 -9 -26 -9 -14 0 -23 -4 -19 -10 3 -5 1 -10 -4 -10 -14 0 -14 6 -1
30 10 18 50 17 50 -1z m254 -11 c-7 -22 -31 -47 -46 -48 -15 0 -8 29 10 39 9
6 11 11 5 11 -25 0 -12 20 13 20 22 0 24 -3 18 -22z m-414 3 c0 -10 -30 -24
-37 -17 -3 3 -2 9 2 15 8 13 35 15 35 2z m84 -22 c-8 -13 -24 -1 -24 18 0 13
3 13 15 3 8 -7 12 -16 9 -21z m-1989 11 c-3 -5 -12 -10 -18 -10 -7 0 -6 4 3
10 19 12 23 12 15 0z m2524 -2 c14 5 14 4 -1 -11 -19 -19 -34 -22 -43 -7 -10
15 5 34 17 22 6 -6 18 -8 27 -4z m-2437 -40 c-6 -6 -18 -7 -29 -3 -16 8 -16 9
5 12 12 3 23 12 23 21 1 14 2 14 6 -2 3 -10 0 -23 -5 -28z m2518 27 c-3 -5
-12 -10 -20 -10 -9 0 -14 -9 -13 -22 2 -16 -2 -20 -16 -16 -23 6 -38 -15 -17
-23 22 -8 21 -44 -1 -43 -12 0 -13 2 -5 6 10 4 10 8 1 19 -14 17 -30 9 -22
-12 5 -14 3 -15 -14 -6 -11 6 -22 9 -25 7 -3 -3 -4 5 -3 18 1 15 9 23 25 25
27 4 61 41 55 60 -4 10 4 12 28 10 17 -2 30 -7 27 -13z m-654 -21 c8 3 14 1
14 -4 0 -6 -9 -10 -20 -10 -14 0 -20 6 -19 23 1 18 2 18 6 4 3 -11 11 -16 19
-13z m-1776 12 c0 -2 -7 -7 -16 -10 -8 -3 -12 -2 -9 4 6 10 25 14 25 6z m1694
-21 c9 -14 12 -25 6 -25 -5 0 -10 5 -10 10 0 6 -7 10 -15 10 -18 0 -20 -27 -2
-33 6 -2 9 -8 4 -12 -4 -5 -13 0 -20 10 -11 13 -11 24 -3 41 14 30 20 30 40
-1z m610 17 c2 -4 1 -14 -3 -21 -6 -10 -10 -9 -15 4 -3 9 -11 13 -17 9 -8 -4
-9 -3 -5 4 8 14 32 16 40 4z m-146 -14 c-7 -19 -38 -22 -38 -4 0 10 9 16 21
16 12 0 19 -5 17 -12z m-296 -22 c14 -20 8 -26 -16 -16 -19 7 -26 4 -36 -16
-19 -34 -40 -31 -40 7 0 26 3 30 19 26 11 -3 22 1 25 9 6 15 36 8 48 -10z
m198 9 c10 -13 9 -15 -8 -15 -15 0 -20 5 -16 15 4 8 7 15 9 15 1 0 8 -7 15
-15z m135 5 c-3 -5 -10 -10 -16 -10 -5 0 -9 5 -9 10 0 6 7 10 16 10 8 0 12 -4
9 -10z m-1740 -11 c-4 -6 1 -17 11 -24 23 -17 3 -20 -27 -5 -25 14 -24 40 2
40 12 0 17 -4 14 -11z m1167 -11 c-6 -6 -8 -17 -5 -24 3 -8 0 -14 -5 -14 -17
0 -26 41 -11 51 17 10 34 0 21 -13z m-1871 -1 c-1 -12 -15 -9 -19 4 -3 6 1 10
8 8 6 -3 11 -8 11 -12z m2164 3 c3 -5 -1 -10 -10 -10 -9 0 -13 5 -10 10 3 6 8
10 10 10 2 0 7 -4 10 -10z m-1505 -20 c25 -25 7 -36 -31 -21 -17 7 -19 10 -7
10 11 1 15 6 12 16 -8 21 2 19 26 -5z m1198 -34 c17 -6 22 -3 22 9 0 10 4 13
13 8 21 -13 41 -12 65 3 28 18 28 11 0 -21 -16 -19 -24 -22 -35 -14 -9 8 -13
8 -13 1 0 -6 -9 -9 -20 -7 -11 2 -22 0 -25 -6 -4 -5 -1 -9 5 -9 6 0 8 -5 5
-10 -4 -6 6 -9 26 -8 26 3 32 -1 35 -19 3 -19 -1 -23 -24 -22 -23 0 -24 2 -8
8 14 5 16 10 8 15 -7 4 -16 5 -22 1 -19 -11 -50 18 -44 42 5 17 2 23 -10 23
-16 0 -20 -10 -17 -42 3 -22 -17 -24 -26 -2 -3 8 -11 13 -18 10 -15 -5 -14 10
3 41 7 12 12 30 12 40 0 15 4 14 23 -8 12 -14 32 -29 45 -33z m835 2 c5 -14 1
-18 -16 -18 -18 0 -19 2 -7 10 12 8 13 13 3 30 -7 11 -13 23 -13 27 0 10 25
-28 33 -49z m-2513 30 c0 -5 -6 -8 -13 -8 -8 0 -22 -9 -31 -19 -10 -11 -25
-17 -37 -14 -11 3 -28 -2 -39 -12 -12 -11 -26 -14 -39 -10 -23 7 -26 21 -11
45 7 11 12 12 21 3 8 -8 18 -9 31 -2 12 7 25 6 39 -2 18 -9 20 -8 15 8 -5 17
-1 19 29 19 19 -1 35 -4 35 -8z m2241 -34 c-5 -21 -9 -30 -10 -18 -1 11 -6 25
-13 32 -9 9 -8 12 5 12 9 0 17 5 17 12 0 6 2 9 5 6 3 -3 1 -23 -4 -44z m99 18
c-19 -7 -11 -42 10 -42 22 0 25 -8 9 -30 -8 -11 -12 -12 -16 -2 -2 7 -11 19
-19 27 -8 8 -15 17 -14 20 1 21 -2 25 -12 20 -7 -4 -2 2 12 13 18 15 27 17 32
9 4 -7 3 -13 -2 -15z m-1240 -58 c0 -12 -65 -25 -87 -16 -16 5 -17 64 -2 79 9
9 22 4 50 -19 22 -17 39 -37 39 -44z m894 54 c-4 -6 -3 -8 3 -5 5 3 22 -5 38
-19 30 -26 50 -30 60 -14 3 6 1 10 -5 10 -6 0 -8 5 -5 10 9 15 25 2 25 -20 0
-26 -39 -47 -52 -29 -8 11 -9 10 -4 -3 7 -23 -22 -25 -31 -2 -5 13 -7 13 -14
2 -5 -7 -9 -22 -9 -33 0 -17 2 -17 10 -5 6 9 10 10 10 3 0 -23 -21 -24 -41 -2
-10 12 -22 19 -26 16 -3 -4 1 -15 10 -25 22 -24 22 -42 0 -41 -12 0 -14 2 -5
6 10 4 8 9 -6 19 -18 12 -29 45 -35 97 -1 16 -17 25 -17 9 0 -4 -11 -9 -25
-10 -14 -1 -25 3 -25 8 0 6 7 10 15 10 8 0 15 7 15 16 0 13 3 14 14 5 10 -9
23 -8 52 2 42 14 59 12 48 -5z m-2179 2 c-3 -5 -10 -10 -16 -10 -5 0 -9 5 -9
10 0 6 7 10 16 10 8 0 12 -4 9 -10z m-25 -50 c10 0 20 -7 24 -15 3 -8 11 -15
18 -15 7 0 19 -9 26 -20 15 -25 30 -26 34 -1 3 18 4 18 20 -3 17 -23 16 -23
-20 -21 -20 1 -56 -4 -80 -10 -27 -9 -44 -10 -48 -3 -4 6 -20 7 -36 4 -17 -3
-41 -3 -54 0 -20 5 -22 9 -13 20 9 11 8 14 -6 14 -15 0 -14 4 7 24 14 12 33
26 42 29 9 4 16 11 16 17 0 6 10 14 23 19 19 7 22 5 25 -15 2 -15 10 -24 22
-24z m278 33 c-10 -2 -18 -12 -18 -21 0 -12 -3 -13 -11 -5 -16 16 -2 33 24 32
17 -1 18 -2 5 -6z m442 -28 c0 -39 -15 -47 -23 -13 -5 19 7 48 19 48 2 0 4
-16 4 -35z m1326 11 c1 -10 8 -23 16 -27 18 -11 5 -20 -36 -26 -32 -4 -34 -3
-32 21 2 14 -1 26 -7 26 -5 0 -4 7 3 15 17 21 52 15 56 -9z m-1276 0 c0 -8 9
-21 21 -29 13 -9 16 -17 10 -22 -6 -3 -11 -1 -11 5 0 7 -6 8 -19 1 -17 -10
-19 -7 -18 24 1 33 17 52 17 21z m1596 3 c3 -6 2 -15 -4 -21 -6 -6 -11 -2 -15
11 -5 22 7 29 19 10z m61 -31 c-3 -7 -5 -2 -5 12 0 14 2 19 5 13 2 -7 2 -19 0
-25z m272 16 c2 -2 2 -7 -2 -10 -3 -3 -16 2 -29 11 l-23 17 25 -7 c14 -4 27
-9 29 -11z m-2492 0 c-3 -3 -12 -4 -19 -1 -8 3 -5 6 6 6 11 1 17 -2 13 -5z
m-360 -10 c-3 -3 -12 -4 -19 -1 -8 3 -5 6 6 6 11 1 17 -2 13 -5z m2663 -18 c0
-2 -9 -6 -20 -9 -15 -4 -20 0 -20 14 0 17 3 18 20 9 11 -6 20 -12 20 -14z
m120 14 c4 7 13 11 20 8 9 -3 8 -8 -4 -21 -9 -9 -16 -19 -16 -22 1 -4 -1 -9
-4 -12 -3 -4 -6 1 -6 10 0 8 -2 21 -3 29 -2 7 -2 9 1 4 2 -4 8 -3 12 4z m-510
-8 c0 -5 -9 -17 -20 -27 -19 -18 -20 -17 -20 2 0 11 3 23 7 26 9 10 33 9 33
-1z m594 -16 c-3 -9 -10 -13 -16 -10 -5 3 -4 12 3 20 15 18 22 13 13 -10z
m-2514 -6 c0 -5 -4 -10 -10 -10 -5 0 -10 5 -10 10 0 6 5 10 10 10 6 0 10 -4
10 -10z m2123 -34 c-3 -4 -9 -2 -14 5 -13 22 -11 31 5 17 8 -7 12 -17 9 -22z
m-2156 12 c-2 -7 0 -20 4 -30 6 -11 4 -18 -7 -22 -27 -10 -35 4 -19 35 15 29
31 41 22 17z m567 -30 c-3 -5 5 -17 18 -27 13 -11 19 -23 15 -27 -4 -5 -12 -3
-16 4 -4 8 -15 10 -26 6 -15 -6 -17 -4 -12 11 4 9 2 24 -4 31 -8 10 -8 14 -1
14 6 0 9 8 6 18 -5 15 -4 15 10 -2 8 -10 13 -23 10 -28z m1806 38 c0 -3 -4 -8
-10 -11 -5 -3 -10 -1 -10 4 0 6 5 11 10 11 6 0 10 -2 10 -4z m150 -22 c0 -8
-8 -14 -17 -13 -10 0 -13 3 -6 5 7 3 9 12 6 21 -4 11 -2 14 5 9 7 -4 12 -14
12 -22z m-417 9 c-7 -2 -19 -2 -25 0 -7 3 -2 5 12 5 14 0 19 -2 13 -5z m86
-34 c1 -4 -5 -9 -13 -12 -9 -4 -13 0 -11 11 2 9 4 24 5 32 1 10 4 9 10 -5 5
-11 9 -23 9 -26z m21 26 c0 -8 -4 -15 -10 -15 -5 0 -7 7 -4 15 4 8 8 15 10 15
2 0 4 -7 4 -15z m227 -7 c-3 -8 -6 -5 -6 6 -1 11 2 17 5 13 3 -3 4 -12 1 -19z
m-1790 -20 c-3 -7 -5 -2 -5 12 0 14 2 19 5 13 2 -7 2 -19 0 -25z m1617 23 c3
-5 -1 -11 -9 -15 -15 -6 -29 7 -18 18 9 9 21 8 27 -3z m60 -9 c2 -4 -4 -19
-15 -32 -19 -26 -23 -21 -13 18 6 22 19 29 28 14z m-260 -10 c2 -4 -4 -9 -15
-9 -10 -1 -19 2 -19 8 0 11 27 12 34 1z m416 4 c0 -2 -7 -6 -15 -10 -8 -3 -15
-1 -15 4 0 6 7 10 15 10 8 0 15 -2 15 -4z m90 0 c0 -2 -7 -6 -15 -10 -8 -3
-15 -1 -15 4 0 6 7 10 15 10 8 0 15 -2 15 -4z m-2538 -41 c-2 -14 -9 -25 -15
-25 -5 0 -16 -8 -23 -17 -7 -10 -15 -15 -19 -11 -4 3 5 17 19 29 14 12 26 31
26 41 0 11 4 17 9 14 4 -3 6 -17 3 -31z m-275 3 c-3 -8 -6 -5 -6 6 -1 11 2 17
5 13 3 -3 4 -12 1 -19z m53 14 c0 -13 -12 -22 -22 -16 -10 6 -1 24 13 24 5 0
9 -4 9 -8z m2314 -13 c-3 -5 -10 -7 -15 -3 -5 3 -7 10 -3 15 3 5 10 7 15 3 5
-3 7 -10 3 -15z m251 -7 c-3 -3 -11 0 -18 7 -9 10 -8 11 6 5 10 -3 15 -9 12
-12z m-1652 -25 c-18 -11 -25 -5 -17 16 4 13 9 14 19 4 11 -10 10 -14 -2 -20z
m1447 29 c0 -3 -4 -8 -10 -11 -5 -3 -10 -1 -10 4 0 6 5 11 10 11 6 0 10 -2 10
-4z m46 -8 c5 -7 2 -9 -9 -5 -9 3 -18 1 -21 -6 -2 -7 -5 -4 -5 6 -1 19 24 23
35 5z m-1530 -5 c-3 -4 -17 -8 -29 -10 -17 -2 -19 -1 -7 7 17 11 47 14 36 3z
m1854 -3 c0 -5 -2 -10 -4 -10 -3 0 -8 5 -11 10 -3 6 -1 10 4 10 6 0 11 -4 11
-10z m-176 -33 c-3 -9 -10 -17 -15 -17 -11 0 -12 34 -2 44 11 11 24 -9 17 -27z
m-1790 14 c3 -5 -3 -11 -14 -14 -13 -3 -20 0 -20 9 0 15 26 19 34 5z m41 -1
c3 -5 -1 -10 -10 -10 -9 0 -13 5 -10 10 3 6 8 10 10 10 2 0 7 -4 10 -10z
m-666 -30 c4 0 7 -9 7 -19 0 -17 -3 -16 -27 7 -14 15 -24 30 -22 35 2 4 11 0
19 -8 9 -8 19 -15 23 -15z m2341 10 c0 -5 -9 -10 -20 -10 -11 0 -20 5 -20 10
0 6 9 10 20 10 11 0 20 -4 20 -10z m-2180 -21 c0 -5 -7 -9 -15 -9 -15 0 -20
12 -9 23 8 8 24 -1 24 -14z m2090 3 c0 -4 -9 -8 -20 -9 -11 -1 -18 2 -15 8 7
11 35 12 35 1z m207 -12 c3 -10 2 -11 -4 -4 -4 6 -15 14 -23 17 -11 5 -9 6 4
4 11 -1 21 -9 23 -17z m123 0 c0 -5 -4 -10 -10 -10 -5 0 -10 5 -10 10 0 6 5
10 10 10 6 0 10 -4 10 -10z m-2475 -10 c3 -5 1 -10 -5 -10 -7 0 -9 -7 -6 -16
4 -10 2 -13 -6 -8 -6 4 -17 -1 -24 -10 -7 -10 -15 -13 -18 -7 -6 9 33 60 46
61 4 0 10 -4 13 -10z m495 0 c0 -5 -4 -10 -10 -10 -5 0 -10 5 -10 10 0 6 5 10
10 10 6 0 10 -4 10 -10z m100 0 c0 -5 -4 -10 -9 -10 -6 0 -13 5 -16 10 -3 6 1
10 9 10 9 0 16 -4 16 -10z m1600 6 c0 -3 -4 -8 -10 -11 -5 -3 -10 -1 -10 4 0
6 5 11 10 11 6 0 10 -2 10 -4z m127 -10 c0 -11 -9 -13 -35 -7 -2 1 0 6 3 11 9
15 32 12 32 -4z m-1774 -32 c5 -30 -8 -20 -18 15 -4 15 -3 21 3 17 5 -3 12
-17 15 -32z m1817 0 c0 -8 -7 -14 -16 -14 -13 0 -14 3 -5 13 6 8 7 18 3 22 -4
5 -1 5 6 1 6 -4 12 -14 12 -22z m-77 -38 c14 -30 14 -36 1 -46 -11 -10 -14 -9
-14 4 0 11 5 15 13 10 6 -4 9 -3 4 1 -4 5 -22 10 -40 11 -46 2 -47 2 -47 22 1
15 2 16 13 1 9 -12 16 -14 29 -6 15 10 15 12 0 24 -16 11 -15 12 4 13 13 0 26
-11 37 -34z m150 14 c3 -11 1 -20 -4 -20 -5 0 -9 9 -9 20 0 11 2 20 4 20 2 0
6 -9 9 -20z m-2716 -32 c-3 -8 -6 -5 -6 6 -1 11 2 17 5 13 3 -3 4 -12 1 -19z
m813 12 c0 -5 -4 -10 -10 -10 -5 0 -10 5 -10 10 0 6 5 10 10 10 6 0 10 -4 10
-10z m1678 -22 c7 -7 12 -16 12 -22 0 -6 -5 -5 -11 1 -6 6 -18 9 -25 6 -14 -5
-19 8 -7 20 9 10 17 9 31 -5z m122 -13 c0 -8 -2 -15 -4 -15 -2 0 -6 7 -10 15
-3 8 -1 15 4 15 6 0 10 -7 10 -15z m-78 -17 c-6 -6 -15 -8 -19 -4 -4 4 -1 11
7 16 19 12 27 3 12 -12z m128 7 c0 -19 20 -19 48 0 20 14 21 14 16 0 -3 -8
-14 -15 -23 -16 -9 0 0 -7 19 -14 32 -12 33 -14 10 -15 -14 -1 -19 -4 -13 -7
10 -3 10 -8 -1 -19 -17 -17 -52 -18 -62 -2 -4 7 -3 8 4 4 7 -4 12 -2 12 4 0 7
7 10 15 6 12 -4 13 -2 3 14 -12 19 -13 19 -30 0 -10 -11 -18 -25 -18 -32 0 -8
-3 -9 -8 -3 -8 12 -55 19 -48 7 2 -4 -4 -8 -15 -8 -25 0 -25 16 0 23 13 3 18
10 13 21 -5 15 -4 15 12 0 9 -10 23 -18 29 -18 8 0 7 4 -1 12 -17 17 -15 29 6
26 11 -2 16 3 14 15 -2 9 2 17 8 17 5 0 10 -7 10 -15z m-1859 -52 c-10 -17
-10 -16 -11 3 0 23 13 41 18 25 2 -6 -1 -18 -7 -28z m1764 27 c3 -5 -1 -10 -9
-10 -9 0 -16 5 -16 10 0 6 4 10 9 10 6 0 13 -4 16 -10z m-76 -9 c12 -8 12 -12
2 -24 -10 -13 -9 -17 5 -25 14 -8 14 -10 1 -15 -27 -10 -49 29 -25 44 10 7 9
9 -5 9 -10 0 -15 5 -12 10 8 12 16 12 34 1z m-1124 -21 c3 -6 -1 -7 -9 -4 -18
7 -21 14 -7 14 6 0 13 -4 16 -10z m-1495 -4 c0 -3 -4 -8 -10 -11 -5 -3 -10 -1
-10 4 0 6 5 11 10 11 6 0 10 -2 10 -4z m2650 -6 c0 -5 -5 -10 -11 -10 -5 0 -7
5 -4 10 3 6 8 10 11 10 2 0 4 -4 4 -10z m116 -35 c18 -13 18 -14 -4 -8 -12 3
-25 9 -28 14 -8 14 10 11 32 -6z m128 -43 c3 -5 -1 -9 -9 -9 -8 0 -15 5 -15
10 0 5 -6 7 -14 4 -8 -3 -17 1 -20 9 -3 9 -2 12 5 9 6 -4 13 3 16 14 5 21 6
21 19 -4 7 -14 15 -29 18 -33z m-76 20 c-2 -24 -6 -28 -25 -24 -29 5 -30 22
-2 22 15 0 19 5 15 15 -3 8 -1 15 4 15 6 0 9 -13 8 -28z m-118 6 c0 -9 4 -8
10 2 8 13 10 12 10 -3 0 -15 3 -16 21 -6 17 8 20 8 17 -2 -2 -7 -20 -13 -39
-14 -28 -2 -35 2 -36 16 -1 11 2 19 8 19 5 0 9 -6 9 -12z m-2300 -8 c-19 -13
-30 -13 -30 0 0 6 10 10 23 10 18 0 19 -2 7 -10z m2273 -13 c-4 -7 -8 -15 -9
-19 -1 -5 -2 -11 -3 -15 -1 -7 -41 33 -41 41 0 3 6 3 14 0 8 -3 17 0 21 5 3 6
11 9 16 5 5 -3 6 -11 2 -17z m-2494 -18 c-5 -11 -14 -19 -20 -19 -6 0 -7 5 -3
12 5 8 2 9 -10 5 -10 -4 -23 -1 -30 6 -11 10 -5 13 30 13 39 1 42 -1 33 -17z
m92 -3 c-9 -11 -6 -13 14 -13 15 0 25 5 25 13 0 8 4 14 10 14 5 0 7 -14 3 -32
-7 -38 -13 -49 -13 -25 0 10 -4 17 -10 17 -5 0 -10 -4 -10 -9 0 -4 -11 -6 -25
-4 -13 3 -23 10 -22 16 3 16 20 36 31 37 5 0 3 -6 -3 -14z m142 0 c20 -15 22
-32 5 -42 -6 -4 -8 -3 -4 4 3 6 -6 20 -20 31 -15 12 -20 21 -13 21 8 0 22 -7
32 -14z m2302 4 c-3 -5 -11 -10 -16 -10 -6 0 -7 5 -4 10 3 6 11 10 16 10 6 0
7 -4 4 -10z m35 -10 c0 -5 -7 -10 -16 -10 -8 0 -12 5 -9 10 3 6 10 10 16 10 5
0 9 -4 9 -10z m-2373 -16 c3 -8 1 -20 -6 -27 -8 -8 -15 -6 -25 8 -11 15 -11
22 -3 27 18 12 27 9 34 -8z m2523 -22 c-15 -5 -41 18 -34 30 3 5 15 1 26 -9
11 -10 15 -19 8 -21z m-2816 13 c-4 -8 -8 -15 -10 -15 -2 0 -4 7 -4 15 0 8 4
15 10 15 5 0 7 -7 4 -15z m42 0 c-3 -9 0 -15 9 -15 8 0 15 5 15 10 0 6 4 10 9
10 5 0 7 -9 4 -20 -6 -23 -12 -24 -45 -7 -26 13 -27 37 -1 37 9 0 13 -6 9 -15z
m361 -5 c1 -16 -1 -17 -12 -7 -7 6 -11 15 -8 20 8 13 19 7 20 -13z m-477 -20
c-7 -5 -11 -19 -8 -34 5 -22 2 -26 -13 -21 -11 4 -19 2 -19 -4 0 -6 11 -11 25
-11 25 0 35 -23 15 -35 -6 -4 -9 -1 -8 7 2 7 -3 12 -11 10 -7 -1 -20 3 -29 10
-13 11 -14 10 -4 -8 6 -12 8 -24 5 -28 -3 -3 -1 -6 4 -6 6 0 14 5 16 10 3 6 4
5 3 -2 -1 -7 -13 -15 -26 -16 -20 -3 -22 -2 -12 11 8 10 9 17 3 21 -16 10 -7
77 12 91 9 7 17 17 17 24 0 9 5 9 21 0 16 -8 18 -13 9 -19z m2820 16 c0 -11
14 -16 48 -19 l47 -3 -51 -2 c-44 -2 -52 1 -57 18 -3 11 -1 20 4 20 5 0 9 -7
9 -14z m-2765 -16 c3 -5 -3 -10 -14 -10 -12 0 -21 5 -21 10 0 6 6 10 14 10 8
0 18 -4 21 -10z m2615 -10 c0 -5 -2 -10 -4 -10 -3 0 -8 5 -11 10 -3 6 -1 10 4
10 6 0 11 -4 11 -10z m84 -5 c3 -8 1 -15 -4 -15 -6 0 -10 7 -10 15 0 8 2 15 4
15 2 0 6 -7 10 -15z m-2567 -17 c-3 -8 -6 -5 -6 6 -1 11 2 17 5 13 3 -3 4 -12
1 -19z m131 4 c2 -7 -7 -10 -25 -8 -39 5 -41 6 -18 16 24 10 37 8 43 -8z m156
10 c3 -5 -1 -9 -9 -9 -8 0 -12 4 -9 9 3 4 7 8 9 8 2 0 6 -4 9 -8z m-416 -14
c-2 -6 -10 -14 -16 -16 -7 -2 -10 2 -6 12 7 18 28 22 22 4z m72 1 c0 -5 -6 -9
-12 -9 -7 0 -23 -3 -36 -6 -16 -5 -21 -3 -17 7 6 15 65 22 65 8z m310 7 c0 -3
-4 -8 -10 -11 -5 -3 -10 -1 -10 4 0 6 5 11 10 11 6 0 10 -2 10 -4z m2255 -6
c3 -5 1 -10 -4 -10 -6 0 -11 5 -11 10 0 6 2 10 4 10 3 0 8 -4 11 -10z m-65
-10 c0 -5 -4 -10 -10 -10 -5 0 -10 5 -10 10 0 6 5 10 10 10 6 0 10 -4 10 -10z
m-2402 -22 c-3 -7 -13 -15 -24 -17 -16 -3 -17 -1 -5 13 16 19 34 21 29 4z m47
2 c3 -5 1 -10 -4 -10 -6 0 -11 5 -11 10 0 6 2 10 4 10 3 0 8 -4 11 -10z m2394
7 c-2 -1 -12 -9 -22 -16 -15 -12 -17 -12 -11 3 3 9 13 16 22 16 8 0 13 -1 11
-3z m26 -6 c3 -5 1 -12 -5 -16 -5 -3 -10 1 -10 9 0 18 6 21 15 7z m76 -21 c11
0 17 -4 14 -10 -3 -5 -1 -10 5 -10 6 0 8 -5 5 -10 -10 -16 -63 32 -56 50 4 12
6 12 9 -2 2 -10 12 -18 23 -18z m79 14 c0 -8 -19 -13 -24 -6 -3 5 1 9 9 9 8 0
15 -2 15 -3z m35 -3 c3 -5 1 -12 -5 -16 -5 -3 -10 1 -10 9 0 18 6 21 15 7z
m-2808 -7 c-3 -3 -12 -4 -19 -1 -8 3 -5 6 6 6 11 1 17 -2 13 -5z m209 -39 c8
-16 6 -25 -9 -40 -13 -13 -21 -16 -24 -8 -6 16 -33 5 -33 -13 0 -22 -16 -16
-17 6 -1 13 4 20 15 20 13 0 14 2 3 9 -8 5 -9 11 -3 15 6 3 13 2 17 -4 3 -5
14 -10 23 -10 10 0 1 10 -20 23 l-38 22 38 0 c29 0 41 -5 48 -20z m2569 7 c-3
-3 -11 0 -18 7 -9 10 -8 11 6 5 10 -3 15 -9 12 -12z m-2815 -27 c-7 -9 -15
-13 -17 -11 -6 6 20 36 26 30 2 -2 -2 -10 -9 -19z m507 10 c-2 -5 -11 -10 -20
-10 -8 0 -19 -4 -24 -9 -4 -5 -3 -6 5 -2 7 4 12 1 12 -7 0 -15 -29 -32 -38
-22 -3 3 0 5 6 5 6 0 9 7 6 15 -4 8 -10 12 -15 9 -5 -3 -9 0 -9 6 0 7 7 9 15
6 9 -3 18 0 21 7 5 15 46 17 41 2z m-107 -4 c0 -17 -18 -21 -24 -6 -3 9 0 15
9 15 8 0 15 -4 15 -9z m-70 -61 c0 -5 -5 -10 -11 -10 -5 0 -7 5 -4 10 3 6 8
10 11 10 2 0 4 -4 4 -10z"/>
<path d="M228 1196 c-10 -7 -15 -16 -11 -20 4 -4 1 -11 -7 -16 -13 -8 -12 -10
2 -10 9 0 20 5 23 10 3 6 15 10 26 10 10 0 19 5 19 10 0 6 -9 10 -21 10 -11 0
-17 5 -14 10 8 13 4 12 -17 -4z"/>
<path d="M210 1016 c0 -9 5 -16 10 -16 6 0 10 4 10 9 0 6 -4 13 -10 16 -5 3
-10 -1 -10 -9z"/>
<path d="M192 924 c-7 -8 -10 -19 -6 -26 5 -7 11 -5 21 7 23 33 11 49 -15 19z"/>
<path d="M2394 785 c1 -5 13 -10 25 -9 11 0 21 -4 21 -10 0 -11 20 14 20 25 0
4 -16 6 -35 5 -19 0 -33 -5 -31 -11z"/>
<path d="M185 780 c-3 -5 1 -10 10 -10 9 0 13 5 10 10 -3 6 -8 10 -10 10 -2 0
-7 -4 -10 -10z"/>
<path d="M250 759 c0 -6 -6 -7 -12 -3 -10 6 -9 3 0 -8 8 -9 20 -14 28 -11 18
7 18 19 -1 27 -8 3 -15 1 -15 -5z"/>
<path d="M145 740 c-7 -12 -9 -11 38 -15 27 -3 37 0 37 11 0 16 -65 20 -75 4z"/>
<path d="M2260 785 c0 -8 4 -15 10 -15 5 0 7 7 4 15 -4 8 -8 15 -10 15 -2 0
-4 -7 -4 -15z"/>
<path d="M7 2264 c-4 -4 -7 -64 -6 -133 0 -69 3 -120 6 -113 2 6 10 12 17 12
17 0 51 27 123 98 67 67 75 82 43 82 -12 0 -25 10 -32 25 -10 22 -17 25 -64
25 -29 0 -59 2 -66 5 -8 3 -17 2 -21 -1z"/>
<path d="M280 2200 c0 -5 5 -10 10 -10 6 0 10 5 10 10 0 6 -4 10 -10 10 -5 0
-10 -4 -10 -10z"/>
<path d="M293 2162 c-9 -6 -10 -17 -4 -39 5 -18 8 -50 6 -73 -3 -34 1 -45 20
-62 19 -16 22 -25 15 -43 -5 -14 -5 -26 2 -33 15 -15 -8 -43 -29 -35 -12 5
-15 2 -10 -10 7 -18 -8 -33 -18 -17 -9 15 -35 12 -35 -4 0 -16 67 -27 73 -11
2 5 2 0 1 -12 -3 -15 2 -24 17 -28 11 -4 23 -4 26 -1 4 3 2 6 -4 6 -5 0 -8 14
-5 31 3 19 9 28 17 25 8 -3 16 2 19 10 3 8 0 14 -7 14 -9 0 -9 2 0 8 6 4 15
21 19 37 7 28 6 29 -10 16 -15 -13 -19 -13 -26 0 -6 9 -4 19 5 28 12 12 11 18
-6 43 -11 15 -17 28 -12 28 4 0 0 7 -11 15 -13 10 -18 27 -19 64 -1 52 -3 56
-24 43z"/>
<path d="M630 2160 c20 -13 33 -13 25 0 -3 6 -14 10 -23 10 -15 0 -15 -2 -2
-10z"/>
<path d="M995 2141 l-30 -7 38 -7 c39 -8 61 -2 52 14 -7 10 -15 10 -60 0z"/>
<path d="M1000 2070 c0 -5 6 -10 14 -10 8 0 18 5 21 10 3 6 -3 10 -14 10 -12
0 -21 -4 -21 -10z"/>
<path d="M378 2053 c7 -3 16 -2 19 1 4 3 -2 6 -13 5 -11 0 -14 -3 -6 -6z"/>
<path d="M970 2034 c0 -8 -4 -12 -10 -9 -5 3 -10 2 -10 -4 0 -20 16 -18 33 5
15 21 16 24 2 24 -8 0 -15 -7 -15 -16z"/>
<path d="M398 2033 c7 -3 16 -2 19 1 4 3 -2 6 -13 5 -11 0 -14 -3 -6 -6z"/>
<path d="M1095 2001 c3 -5 -1 -12 -7 -14 -7 -3 -3 -6 10 -6 25 -1 30 14 6 23
-8 3 -13 2 -9 -3z"/>
<path d="M2090 1941 c0 -11 31 -24 39 -16 3 3 -1 10 -9 15 -19 12 -30 12 -30
1z"/>
<path d="M1420 1920 c0 -5 5 -10 10 -10 6 0 10 5 10 10 0 6 -4 10 -10 10 -5 0
-10 -4 -10 -10z"/>
<path d="M2215 1906 c31 -13 59 -11 49 5 -3 5 -22 9 -42 9 l-37 -1 30 -13z"/>
<path d="M2520 1876 c-6 -9 -10 -21 -7 -28 4 -9 6 -7 6 4 1 9 7 18 14 21 6 2
9 7 6 11 -3 4 -12 0 -19 -8z"/>
<path d="M140 1850 c0 -5 10 -10 23 -10 18 0 19 2 7 10 -19 13 -30 13 -30 0z"/>
<path d="M2150 1850 c-17 -11 -8 -23 23 -27 57 -8 106 -8 98 0 -5 5 -25 10
-45 11 -19 2 -41 8 -49 14 -8 7 -18 7 -27 2z"/>
<path d="M82 1813 c-7 -13 -19 -23 -27 -23 -8 0 -15 -4 -15 -10 0 -5 14 -10
30 -10 17 0 30 -5 30 -11 0 -5 -4 -7 -10 -4 -5 3 -7 0 -4 -8 3 -8 0 -18 -5
-22 -6 -3 -9 -11 -6 -16 4 -5 -5 -4 -19 2 -20 9 -29 9 -41 -1 -17 -14 -21 -75
-4 -64 6 3 9 15 6 25 -4 16 0 18 38 13 33 -5 43 -3 48 10 4 9 14 16 23 16 10
0 14 5 11 14 -4 10 5 16 33 21 30 5 38 11 37 26 -2 24 -13 24 -26 2 -10 -17
-10 -17 -11 1 0 18 -1 18 -18 3 -24 -22 -31 -21 -25 3 4 14 0 20 -10 20 -9 0
-17 8 -19 18 -3 15 -6 14 -16 -5z"/>
<path d="M11 1806 c-10 -12 -8 -13 8 -9 12 3 18 9 15 14 -7 12 -10 11 -23 -5z"/>
<path d="M2075 1810 c-3 -6 1 -7 9 -4 18 7 21 14 7 14 -6 0 -13 -4 -16 -10z"/>
<path d="M2327 1806 c-4 -10 -1 -13 8 -9 8 3 12 9 9 14 -7 12 -11 11 -17 -5z"/>
<path d="M2440 1805 c23 -13 23 -14 5 -15 -12 0 -27 6 -34 13 -10 10 -11 9 -6
-5 7 -17 11 -20 38 -22 6 -1 15 -5 19 -11 4 -5 10 -6 14 -3 11 11 -25 58 -44
58 -13 -1 -11 -4 8 -15z"/>
<path d="M2183 1750 c0 -34 3 -36 21 -17 11 11 11 17 1 30 -17 24 -22 21 -22
-13z"/>
<path d="M2285 1770 c3 -5 10 -10 16 -10 5 0 9 5 9 10 0 6 -7 10 -16 10 -8 0
-12 -4 -9 -10z"/>
<path d="M2495 1772 c-11 -11 -4 -22 15 -22 11 0 20 -4 20 -8 0 -5 21 -7 47
-5 28 2 49 -1 54 -8 4 -7 14 -9 25 -4 11 5 22 7 27 7 4 -1 7 0 7 3 0 9 -44 28
-74 31 -96 10 -116 11 -121 6z"/>
<path d="M2392 1749 c-20 -8 -21 -11 -10 -29 13 -20 13 -20 20 2 3 13 7 16 7
8 1 -13 2 -13 11 0 6 10 10 11 10 3 0 -7 5 -13 10 -13 6 0 10 6 10 14 0 18
-30 25 -58 15z"/>
<path d="M320 1744 c0 -7 27 -34 33 -34 3 0 3 9 0 20 -5 17 -33 30 -33 14z"/>
<path d="M2231 1724 c0 -11 3 -14 6 -6 3 7 2 16 -1 19 -3 4 -6 -2 -5 -13z"/>
<path d="M2460 1729 c0 -5 9 -9 20 -9 11 0 20 2 20 4 0 2 -9 6 -20 9 -11 3
-20 1 -20 -4z"/>
<path d="M2726 1726 c-18 -14 -17 -15 8 -22 14 -3 26 -11 26 -16 0 -6 16 -8
35 -6 19 2 35 1 35 -2 0 -4 6 -7 13 -7 6 0 25 -4 41 -8 22 -6 28 -5 24 6 -3 8
-13 14 -24 14 -10 0 -24 9 -31 20 -7 11 -13 16 -13 10 0 -5 -4 -4 -9 3 -12 20
-82 25 -105 8z m74 -16 c0 -5 -7 -10 -15 -10 -8 0 -15 5 -15 10 0 6 7 10 15
10 8 0 15 -4 15 -10z"/>
<path d="M2871 1721 c-9 -6 -6 -10 13 -15 14 -3 37 -17 52 -31 39 -36 64 -33
64 7 0 17 -3 28 -7 24 -8 -7 -9 -11 -12 -37 -1 -8 -5 -8 -15 1 -8 6 -12 18 -9
26 5 13 -14 20 -41 15 -4 -1 -13 3 -20 8 -6 5 -18 6 -25 2z"/>
<path d="M166 1710 c-13 -4 -16 -9 -8 -14 7 -4 19 -3 28 2 21 12 5 22 -20 12z"/>
<path d="M2287 1713 c-13 -12 -7 -33 8 -33 8 0 15 9 15 20 0 20 -11 26 -23 13z"/>
<path d="M2520 1711 c-25 -7 -24 -8 8 -15 23 -5 32 -13 32 -27 0 -11 4 -18 9
-14 11 6 -6 66 -17 64 -4 -1 -18 -4 -32 -8z"/>
<path d="M321 1695 c-1 -11 -8 -28 -16 -38 -15 -21 -11 -43 11 -51 9 -3 12 -1
9 4 -3 6 0 11 7 11 7 1 19 2 27 3 20 2 35 30 27 51 -4 12 -13 15 -30 11 -18
-4 -26 -1 -29 11 -4 15 -5 15 -6 -2z"/>
<path d="M470 1694 c0 -8 5 -12 10 -9 6 3 10 10 10 16 0 5 -4 9 -10 9 -5 0
-10 -7 -10 -16z"/>
<path d="M540 1690 c0 -5 5 -10 10 -10 6 0 10 5 10 10 0 6 -4 10 -10 10 -5 0
-10 -4 -10 -10z"/>
<path d="M2587 1679 c4 -15 11 -19 27 -15 11 3 27 6 34 6 7 0 10 5 6 11 -3 6
-15 9 -25 6 -11 -3 -19 -1 -19 4 0 5 -6 9 -14 9 -9 0 -12 -7 -9 -21z"/>
<path d="M2335 1681 c-3 -5 -1 -12 5 -16 5 -3 10 1 10 9 0 18 -6 21 -15 7z"/>
<path d="M2380 1670 c6 -11 15 -20 21 -20 6 0 6 7 -1 20 -6 11 -15 20 -21 20
-6 0 -6 -7 1 -20z"/>
<path d="M2490 1673 c0 -7 -11 -20 -25 -29 -14 -9 -22 -21 -19 -26 4 -6 10 -4
16 6 9 17 38 22 38 7 0 -14 44 -21 52 -8 5 8 -4 16 -25 24 -18 6 -26 12 -19
13 6 2 16 3 21 4 24 3 19 14 -9 18 -20 3 -30 0 -30 -9z"/>
<path d="M2674 1674 c3 -9 6 -18 6 -20 0 -2 9 -4 20 -4 24 0 25 6 6 26 -20 19
-40 18 -32 -2z"/>
<path d="M130 1671 c0 -5 8 -12 18 -16 15 -6 14 -8 -5 -16 -13 -4 -23 -15 -23
-23 0 -9 8 -13 23 -10 12 2 16 2 10 -2 -21 -10 -14 -26 9 -22 31 4 34 31 7 68
-22 29 -39 39 -39 21z"/>
<path d="M43 1655 c-10 -11 -10 -16 -1 -21 7 -4 14 -2 16 4 2 7 8 10 13 7 5
-4 6 1 3 9 -7 19 -15 20 -31 1z"/>
<path d="M495 1659 c4 -5 9 -25 12 -42 6 -44 21 -57 38 -34 10 13 14 15 18 5
3 -8 6 -6 6 5 2 35 -28 77 -55 77 -15 0 -23 -4 -19 -11z"/>
<path d="M713 1660 c2 -8 12 -16 23 -17 13 -2 15 -1 4 4 -8 3 -19 11 -23 17
-6 7 -7 6 -4 -4z"/>
<path d="M2730 1656 c0 -3 20 -11 45 -17 25 -6 48 -15 51 -20 2 -4 15 -4 27 0
19 7 23 5 23 -10 0 -10 -5 -19 -10 -19 -16 0 6 -17 32 -25 16 -5 22 -2 22 9 0
24 19 19 30 -6 5 -13 9 -17 9 -10 1 6 11 12 24 12 18 0 19 2 7 10 -10 6 -11
10 -2 10 6 0 12 4 12 9 0 13 -83 12 -92 -2 -4 -6 -11 -8 -15 -3 -4 5 -2 11 5
13 6 3 12 10 12 17 0 7 -6 13 -12 14 -28 2 -95 11 -130 17 -21 4 -38 5 -38 1z"/>
<path d="M200 1640 c0 -5 7 -10 16 -10 8 0 12 5 9 10 -3 6 -10 10 -16 10 -5 0
-9 -4 -9 -10z"/>
<path d="M578 1643 c7 -3 16 -2 19 1 4 3 -2 6 -13 5 -11 0 -14 -3 -6 -6z"/>
<path d="M2408 1633 c7 -3 16 -2 19 1 4 3 -2 6 -13 5 -11 0 -14 -3 -6 -6z"/>
<path d="M2657 1633 c-10 -9 -8 -43 2 -43 5 0 11 11 13 25 5 24 -2 32 -15 18z"/>
<path d="M721 1614 c0 -11 3 -14 6 -6 3 7 2 16 -1 19 -3 4 -6 -2 -5 -13z"/>
<path d="M1 1594 c0 -11 3 -14 6 -6 3 7 2 16 -1 19 -3 4 -6 -2 -5 -13z"/>
<path d="M2750 1602 c0 -6 -9 -13 -19 -17 -11 -3 -21 -12 -24 -19 -4 -11 -1
-11 19 -2 24 11 39 34 29 44 -3 3 -5 0 -5 -6z"/>
<path d="M2491 1583 c0 -13 -6 -23 -13 -23 -9 0 -9 -3 0 -12 16 -16 24 -5 19
29 -3 21 -4 23 -6 6z"/>
<path d="M2545 1590 c3 -5 8 -10 11 -10 2 0 4 5 4 10 0 6 -5 10 -11 10 -5 0
-7 -4 -4 -10z"/>
<path d="M730 1581 c0 -6 5 -13 10 -16 6 -3 10 1 10 9 0 9 -4 16 -10 16 -5 0
-10 -4 -10 -9z"/>
<path d="M2793 1568 c-9 -10 -6 -16 13 -25 27 -12 30 -6 11 21 -11 15 -15 15
-24 4z"/>
<path d="M7 1553 c3 -9 9 -10 17 -4 6 5 20 11 31 14 11 3 4 5 -16 4 -26 -1
-35 -5 -32 -14z"/>
<path d="M2521 1544 c0 -11 3 -14 6 -6 3 7 2 16 -1 19 -3 4 -6 -2 -5 -13z"/>
<path d="M2879 1555 c-1 -3 -2 -11 -3 -17 -1 -7 -9 -12 -19 -12 -9 1 -17 -2
-17 -7 0 -5 9 -9 19 -9 15 0 18 -5 14 -22 -4 -22 -3 -22 11 2 17 28 21 70 6
70 -5 0 -11 -2 -11 -5z"/>
<path d="M2110 1541 c0 -10 30 -24 37 -17 3 3 2 9 -2 15 -8 13 -35 15 -35 2z"/>
<path d="M2750 1525 c-7 -9 -11 -18 -8 -20 3 -3 11 1 18 10 7 9 11 18 8 20 -3
3 -11 -1 -18 -10z"/>
<path d="M2920 1524 c0 -8 10 -19 23 -24 12 -5 17 -9 10 -9 -7 -1 -10 -7 -7
-15 5 -14 54 -10 54 5 0 5 -6 6 -14 3 -8 -3 -16 4 -20 19 -6 27 -46 45 -46 21z"/>
<path d="M2970 1525 c0 -8 7 -15 16 -15 14 0 14 3 4 15 -7 8 -14 15 -16 15 -2
0 -4 -7 -4 -15z"/>
<path d="M12 1514 c-6 -7 -12 -25 -12 -40 0 -22 2 -24 14 -14 8 6 12 18 9 26
-3 8 1 14 11 14 19 0 21 16 3 23 -6 2 -18 -2 -25 -9z"/>
<path d="M755 1510 c3 -5 8 -10 11 -10 2 0 4 5 4 10 0 6 -5 10 -11 10 -5 0 -7
-4 -4 -10z"/>
<path d="M2126 1485 c-9 -26 -7 -32 5 -12 6 10 9 21 6 23 -2 3 -7 -2 -11 -11z"/>
<path d="M2835 1490 c-3 -5 -1 -10 4 -10 6 0 11 5 11 10 0 6 -2 10 -4 10 -3 0
-8 -4 -11 -10z"/>
<path d="M811 1474 c0 -11 3 -14 6 -6 3 7 2 16 -1 19 -3 4 -6 -2 -5 -13z"/>
<path d="M2760 1480 c0 -5 5 -10 10 -10 6 0 10 5 10 10 0 6 -4 10 -10 10 -5 0
-10 -4 -10 -10z"/>
<path d="M475 1469 c-10 -15 1 -23 20 -15 9 3 13 10 10 16 -8 13 -22 13 -30
-1z"/>
<path d="M750 1456 c0 -8 5 -18 10 -21 6 -3 10 1 10 9 0 8 -4 18 -10 21 -5 3
-10 -1 -10 -9z"/>
<path d="M485 1420 c-3 -5 -1 -10 4 -10 6 0 11 5 11 10 0 6 -2 10 -4 10 -3 0
-8 -4 -11 -10z"/>
<path d="M2907 1409 c-9 -6 -23 -7 -30 -3 -8 5 -7 2 2 -9 16 -21 22 -21 46 -4
22 17 7 29 -18 16z"/>
<path d="M2275 1379 c-11 -17 -2 -18 19 -3 17 12 17 14 4 14 -9 0 -20 -5 -23
-11z"/>
<path d="M2440 1379 c0 -5 5 -7 10 -4 6 3 10 8 10 11 0 2 -4 4 -10 4 -5 0 -10
-5 -10 -11z"/>
<path d="M2460 1331 c0 -17 4 -22 16 -17 9 3 20 6 25 6 5 0 9 5 9 11 0 6 -6 9
-14 6 -7 -3 -19 0 -25 6 -8 8 -11 5 -11 -12z"/>
<path d="M450 1330 c0 -5 5 -10 10 -10 6 0 10 5 10 10 0 6 -4 10 -10 10 -5 0
-10 -4 -10 -10z"/>
<path d="M540 1290 c0 -5 5 -10 11 -10 5 0 7 5 4 10 -3 6 -8 10 -11 10 -2 0
-4 -4 -4 -10z"/>
<path d="M2515 1290 c3 -5 8 -10 11 -10 2 0 4 5 4 10 0 6 -5 10 -11 10 -5 0
-7 -4 -4 -10z"/>
<path d="M950 1275 c7 -8 17 -15 22 -15 6 0 5 7 -2 15 -7 8 -17 15 -22 15 -6
0 -5 -7 2 -15z"/>
<path d="M2550 1272 c0 -5 7 -9 15 -9 8 0 15 4 15 9 0 4 -7 8 -15 8 -8 0 -15
-4 -15 -8z"/>
<path d="M780 1260 c0 -5 5 -10 10 -10 6 0 10 5 10 10 0 6 -4 10 -10 10 -5 0
-10 -4 -10 -10z"/>
<path d="M605 1250 c4 -6 11 -8 16 -5 14 9 11 15 -7 15 -8 0 -12 -5 -9 -10z"/>
<path d="M2390 1210 c20 -13 43 -13 35 0 -3 6 -16 10 -28 10 -18 0 -19 -2 -7
-10z"/>
<path d="M2688 1183 c5 -21 7 -23 10 -9 2 10 0 22 -6 28 -6 6 -7 0 -4 -19z"/>
<path d="M2447 1189 c7 -7 15 -10 18 -7 3 3 -2 9 -12 12 -14 6 -15 5 -6 -5z"/>
<path d="M2865 1181 c-3 -5 -1 -12 5 -16 5 -3 10 1 10 9 0 18 -6 21 -15 7z"/>
<path d="M2890 1165 c0 -8 7 -15 15 -15 9 0 12 6 9 15 -4 8 -10 15 -15 15 -5
0 -9 -7 -9 -15z"/>
<path d="M2247 1164 c-3 -4 -2 -15 3 -24 11 -21 54 -15 46 6 -3 7 0 15 7 18 7
2 -2 5 -19 5 -17 1 -34 -2 -37 -5z"/>
<path d="M2450 1162 c0 -4 10 -9 22 -9 18 -2 20 0 8 7 -18 12 -30 13 -30 2z"/>
<path d="M2735 1161 c-6 -11 13 -26 22 -17 4 3 0 6 -8 6 -11 0 -11 2 1 10 9 6
10 10 3 10 -6 0 -14 -4 -18 -9z"/>
<path d="M2792 1131 c-11 -7 -11 -9 2 -14 10 -4 16 -1 16 8 0 17 -1 17 -18 6z"/>
<path d="M2845 1120 c3 -5 8 -10 11 -10 2 0 4 5 4 10 0 6 -5 10 -11 10 -5 0
-7 -4 -4 -10z"/>
<path d="M2906 1113 c-6 -14 -5 -15 5 -6 7 7 10 15 7 18 -3 3 -9 -2 -12 -12z"/>
<path d="M2205 1109 c-10 -14 -1 -21 19 -13 9 3 13 10 10 15 -7 12 -21 11 -29
-2z"/>
<path d="M555 1090 c-3 -5 0 -7 8 -4 8 3 21 -2 30 -10 8 -8 17 -12 21 -9 7 7
-24 32 -41 33 -6 0 -15 -4 -18 -10z"/>
<path d="M2895 1080 c-3 -5 1 -10 10 -10 9 0 13 5 10 10 -3 6 -8 10 -10 10 -2
0 -7 -4 -10 -10z"/>
<path d="M2699 1062 c7 -12 17 -20 22 -16 6 3 9 7 7 8 -2 1 -12 8 -22 16 -18
14 -19 14 -7 -8z"/>
<path d="M530 1050 c0 -5 5 -10 10 -10 6 0 10 5 10 10 0 6 -4 10 -10 10 -5 0
-10 -4 -10 -10z"/>
<path d="M2970 1036 c0 -2 7 -6 15 -10 8 -3 15 -1 15 4 0 6 -7 10 -15 10 -8 0
-15 -2 -15 -4z"/>
<path d="M2770 1010 c0 -23 6 -24 39 -6 l23 13 -23 6 c-36 10 -39 9 -39 -13z"/>
<path d="M2200 1010 c0 -5 5 -10 11 -10 5 0 7 5 4 10 -3 6 -8 10 -11 10 -2 0
-4 -4 -4 -10z"/>
<path d="M710 952 c0 -5 7 -15 15 -22 8 -7 15 -9 15 -6 0 4 -7 14 -15 22 -8 9
-15 11 -15 6z"/>
<path d="M636 835 c4 -8 11 -15 16 -15 6 0 5 6 -2 15 -7 8 -14 15 -16 15 -2 0
-1 -7 2 -15z"/>
<path d="M578 823 c6 -2 18 -2 25 0 6 3 1 5 -13 5 -14 0 -19 -2 -12 -5z"/>
<path d="M625 800 c-16 -7 -17 -9 -3 -9 9 -1 20 4 23 9 7 11 7 11 -20 0z"/>
<path d="M644 775 c-16 -12 -17 -14 -2 -15 9 0 18 -4 20 -10 2 -5 8 2 15 15
13 30 -1 34 -33 10z"/>
<path d="M555 761 c-19 -8 -19 -8 4 -20 24 -13 45 -6 22 8 -11 7 -11 10 0 14
8 3 10 5 4 6 -5 0 -19 -4 -30 -8z"/>
<path d="M630 719 c0 -5 5 -7 10 -4 6 3 10 8 10 11 0 2 -4 4 -10 4 -5 0 -10
-5 -10 -11z"/>
<path d="M60 634 c0 -14 3 -14 15 -4 8 7 15 14 15 16 0 2 -7 4 -15 4 -8 0 -15
-7 -15 -16z"/>
<path d="M135 610 c-4 -6 -3 -16 3 -22 6 -6 12 -6 17 2 4 6 3 16 -3 22 -6 6
-12 6 -17 -2z"/>
<path d="M685 600 c-3 -5 -2 -10 4 -10 5 0 13 5 16 10 3 6 2 10 -4 10 -5 0
-13 -4 -16 -10z"/>
<path d="M170 579 c0 -17 3 -19 14 -10 7 6 21 9 30 5 9 -3 16 -2 16 4 0 8 -31
21 -52 22 -5 0 -8 -10 -8 -21z"/>
<path d="M555 572 c-8 -21 -7 -22 24 -20 16 1 28 5 25 9 -2 4 4 9 13 11 10 3
1 6 -19 9 -26 3 -39 1 -43 -9z"/>
<path d="M666 562 c-3 -6 5 -17 19 -26 30 -20 31 -16 6 13 -11 12 -22 18 -25
13z"/>
<path d="M765 560 c-3 -6 1 -7 9 -4 18 7 21 14 7 14 -6 0 -13 -4 -16 -10z"/>
<path d="M762 515 c-7 -8 -9 -15 -4 -15 5 0 15 7 22 15 16 19 -1 19 -18 0z"/>
<path d="M620 510 c-8 -5 -12 -11 -9 -14 2 -3 11 -1 19 4 8 5 12 11 9 14 -2 3
-11 1 -19 -4z"/>
<path d="M660 509 c0 -5 5 -7 10 -4 6 3 10 8 10 11 0 2 -4 4 -10 4 -5 0 -10
-5 -10 -11z"/>
<path d="M570 487 c0 -7 9 -18 20 -25 12 -7 20 -8 20 -2 0 5 -5 10 -11 10 -6
0 -9 7 -5 15 3 9 0 15 -9 15 -8 0 -15 -6 -15 -13z"/>
<path d="M660 439 c0 -5 5 -7 10 -4 6 3 10 8 10 11 0 2 -4 4 -10 4 -5 0 -10
-5 -10 -11z"/>
<path d="M776 355 c4 -8 11 -15 16 -15 6 0 5 6 -2 15 -7 8 -14 15 -16 15 -2 0
-1 -7 2 -15z"/>
<path d="M705 190 c3 -5 8 -10 11 -10 2 0 4 5 4 10 0 6 -5 10 -11 10 -5 0 -7
-4 -4 -10z"/>
<path d="M135 20 c3 -5 12 -7 20 -3 21 7 19 13 -6 13 -11 0 -18 -4 -14 -10z"/>
<path d="M15 10 c11 -5 27 -9 35 -9 9 0 8 4 -5 9 -11 5 -27 9 -35 9 -9 0 -8
-4 5 -9z"/>
<path d="M80 10 c0 -5 7 -10 16 -10 8 0 12 5 9 10 -3 6 -10 10 -16 10 -5 0 -9
-4 -9 -10z"/>
<path d="M490 10 c0 -5 5 -10 11 -10 5 0 7 5 4 10 -3 6 -8 10 -11 10 -2 0 -4
-4 -4 -10z"/>
</g>
</svg>
