<?xml version="1.0" standalone="no"?>
<!DOCTYPE svg PUBLIC "-//W3C//DTD SVG 20010904//EN"
 "http://www.w3.org/TR/2001/REC-SVG-20010904/DTD/svg10.dtd">
<svg version="1.0" xmlns="http://www.w3.org/2000/svg"
 width="1656.000000pt" height="252.000000pt" viewBox="0 0 1656.000000 252.000000"
 preserveAspectRatio="xMidYMid meet">
<metadata>
Created by potrace 1.15, written by Peter Selinger 2001-2017
</metadata>
<g transform="translate(0.000000,252.000000) scale(0.100000,-0.100000)"
fill="#000000" stroke="none">
<path d="M22 2503 l-22 -15 0 -599 0 -599 27 -17 c25 -17 81 -18 823 -21 554
-2 806 0 832 8 21 6 43 21 50 33 10 17 14 156 16 599 l3 576 -26 26 -26 26
-827 -1 c-735 0 -830 -2 -850 -16z m1568 -558 l0 -425 -720 0 -720 0 0 425 0
425 720 0 720 0 0 -425z"/>
<path d="M1960 1640 l0 -882 458 4 c425 4 462 6 533 25 261 72 469 248 566
476 57 136 67 192 67 382 0 201 -13 266 -79 400 -106 214 -312 382 -550 447
-76 21 -104 22 -537 26 l-458 3 0 -881z m859 517 c226 -65 370 -268 371 -523
0 -70 -29 -193 -60 -253 -32 -64 -142 -174 -210 -210 -83 -45 -165 -59 -387
-67 l-193 -7 0 543 0 542 213 -5 c147 -3 228 -10 266 -20z"/>
<path d="M9180 2350 l0 -170 255 0 255 0 0 -710 0 -710 200 0 200 0 0 710 0
710 255 0 255 0 0 170 0 170 -710 0 -710 0 0 -170z"/>
<path d="M10640 2511 c0 -5 151 -241 335 -525 l335 -515 0 -355 0 -356 195 0
195 0 0 353 0 352 336 520 c184 286 338 521 342 522 4 1 69 -89 145 -200 76
-111 206 -300 289 -420 l150 -218 -77 -117 c-43 -64 -151 -220 -240 -347 -263
-374 -305 -434 -305 -440 0 -3 105 -5 233 -5 l232 0 170 246 c94 136 190 275
215 309 44 62 45 62 61 41 9 -11 105 -150 213 -308 l197 -286 512 -4 512 -3
51 -52 50 -53 67 0 c65 0 68 1 107 40 38 38 40 43 40 101 0 59 -2 63 -44 105
-39 40 -48 44 -92 44 -60 0 -113 -25 -139 -67 -12 -19 -31 -33 -49 -37 -16 -3
-154 -6 -307 -6 l-278 0 -54 78 -55 77 101 6 c56 4 145 7 198 8 l95 1 23 -40
c52 -94 180 -98 255 -10 49 59 35 158 -30 209 -21 17 -41 21 -94 21 l-67 0
-46 -50 -46 -50 -183 0 c-101 0 -205 3 -233 6 -48 6 -52 9 -98 75 l-48 69 511
0 512 0 306 -300 307 -300 410 0 410 0 15 -32 c21 -45 61 -70 117 -75 91 -8
163 56 163 146 0 90 -57 146 -150 146 -67 0 -99 -18 -135 -75 l-25 -40 -375 0
-375 0 -306 298 -305 297 -137 6 c-75 4 -232 7 -348 8 -116 0 -313 4 -438 8
l-227 6 -54 79 -54 78 647 0 647 0 150 -150 150 -150 195 0 195 0 24 -43 24
-43 -26 -40 c-26 -40 -47 -127 -47 -196 l0 -38 176 0 177 0 -6 86 c-5 70 -12
96 -37 140 l-30 54 20 32 c14 23 20 51 20 90 0 50 -4 62 -31 93 -36 41 -92 60
-146 50 -28 -5 -50 -20 -84 -56 l-47 -49 -164 -6 -163 -7 -150 161 -150 161
-705 0 -705 1 -31 47 -32 48 31 45 c17 25 142 205 277 400 136 195 255 367
264 383 l18 27 -239 0 -239 0 -168 -257 c-92 -142 -178 -271 -191 -287 l-23
-28 -191 286 -191 286 -460 0 -460 0 -63 -97 c-35 -54 -130 -207 -212 -341
-102 -168 -151 -239 -156 -230 -5 7 -100 160 -211 340 l-203 328 -222 0 c-128
0 -223 -4 -223 -9z"/>
<path d="M4410 2471 c-204 -67 -353 -178 -470 -351 -194 -287 -198 -722 -9
-1009 65 -99 204 -236 293 -290 127 -76 261 -111 426 -111 344 0 630 178 776
486 66 138 88 240 88 414 0 86 -5 170 -13 205 -75 338 -368 630 -678 675 -37
5 -126 10 -198 9 -115 0 -140 -3 -215 -28z m76 -373 c64 -44 86 -87 82 -160
-5 -66 -34 -115 -90 -150 l-37 -23 -1 -153 0 -153 54 -50 c99 -90 106 -177 22
-264 -73 -77 -164 -84 -236 -19 -70 63 -88 139 -51 213 20 38 83 101 101 101
6 0 10 64 9 163 l0 162 -42 30 c-82 60 -106 144 -66 230 48 103 163 135 255
73z m497 19 c39 -17 104 -87 113 -122 18 -73 -28 -171 -99 -208 -40 -21 -96
-26 -140 -14 -25 7 -34 1 -86 -48 l-59 -56 -7 -115 c-6 -99 -10 -116 -26 -125
-24 -13 -55 -4 -64 19 -4 9 -10 65 -13 124 l-5 107 72 78 c78 85 89 107 72
154 -22 65 25 159 99 197 50 25 96 28 143 9z"/>
<path d="M5680 1640 l0 -860 193 2 192 3 5 558 5 558 225 -556 224 -555 92 0
92 0 132 328 c73 180 175 435 229 566 l96 239 3 -571 2 -572 190 0 190 0 0
860 0 860 -266 -2 -265 -3 -199 -493 c-109 -271 -200 -495 -202 -497 -2 -3
-94 219 -204 493 l-201 497 -266 3 -267 2 0 -860z"/>
<path d="M8218 2379 l-3 -122 -48 -12 c-96 -24 -178 -106 -202 -202 l-12 -48
-122 -3 -121 -3 0 -89 0 -90 125 0 125 0 0 -40 0 -40 -125 0 -125 0 0 -90 0
-90 125 0 125 0 0 -35 0 -35 -125 0 -125 0 0 -100 0 -100 120 0 c88 0 122 -3
124 -12 40 -139 112 -214 224 -233 l42 -7 0 -129 0 -129 90 0 90 0 0 130 0
130 40 0 40 0 0 -130 0 -130 90 0 90 0 0 130 0 130 35 0 35 0 0 -130 0 -130
100 0 100 0 0 128 0 129 51 11 c94 22 169 97 191 191 l11 51 129 0 128 0 0
100 0 100 -130 0 -130 0 0 35 0 35 130 0 130 0 0 90 0 90 -130 0 -130 0 0 40
0 40 130 0 130 0 0 90 0 90 -129 0 -129 0 -7 43 c-19 111 -94 183 -232 223
-10 2 -13 36 -13 124 l0 120 -100 0 -100 0 0 -125 0 -125 -35 0 -35 0 0 125 0
125 -90 0 -90 0 0 -125 0 -125 -40 0 -40 0 0 125 0 125 -90 0 -89 0 -3 -121z
m602 -744 l0 -245 -245 0 -245 0 0 245 0 245 245 0 245 0 0 -245z"/>
<path d="M8480 1640 l0 -90 90 0 90 0 0 90 0 90 -90 0 -90 0 0 -90z"/>
<path d="M657 1177 c-3 -7 -13 -61 -22 -119 l-18 -107 -49 -18 c-60 -21 -104
-63 -118 -111 -5 -21 -10 -40 -10 -44 0 -10 784 -11 829 -2 23 5 31 12 31 28
0 51 -66 117 -133 132 -34 7 -41 23 -62 134 -9 47 -19 93 -21 103 -5 15 -24
17 -214 17 -161 0 -209 -3 -213 -13z"/>
<path d="M14438 590 c-57 -45 -76 -146 -38 -208 l21 -33 -30 -62 c-21 -45 -31
-83 -35 -139 l-6 -78 179 0 179 0 -5 48 c-8 90 -24 151 -49 187 -13 20 -24 40
-24 44 0 13 69 71 84 71 25 0 35 -26 68 -175 l33 -150 60 -8 c33 -4 172 -6
309 -5 l249 3 99 143 99 142 97 0 97 -1 28 -46 28 -46 -28 -40 c-24 -35 -28
-50 -31 -138 l-4 -99 166 0 166 0 0 74 c0 81 -12 126 -46 171 l-22 30 24 35
c48 69 25 175 -48 220 -65 39 -163 16 -203 -47 l-20 -32 -106 -1 c-58 0 -154
3 -214 7 l-108 6 -19 33 c-23 39 -80 64 -144 64 -38 0 -51 -6 -86 -38 -35 -33
-41 -45 -46 -90 -5 -62 9 -103 50 -137 24 -21 40 -25 91 -25 72 0 117 22 142
70 14 28 19 30 71 30 l56 0 -19 -28 c-103 -160 -129 -192 -148 -187 -11 3
-121 5 -245 5 l-225 0 -35 166 c-19 92 -39 168 -45 169 -5 2 -36 6 -67 10 -52
6 -59 10 -79 42 -27 43 -71 63 -142 63 -39 0 -61 -6 -79 -20z"/>
</g>
</svg>
